<?xml version="1.0" encoding="UTF-8"?>
<svg xmlns="http://www.w3.org/2000/svg" xmlns:xlink="http://www.w3.org/1999/xlink" viewBox="0 0 50 50" version="1.1" fill="#9a9a9a"><g id="surface1" fill="#9a9a9a"><path style=" " d="M 43 3 L 43 38.003906 C 43 38.003906 42.875 44 36.015625 44 C 28.507813 44 28 39.128906 28 38 C 28 35.589844 28.941406 32.964844 36 32.964844 C 39.25 32.964844 40 32.128906 40 30 C 40 30 40 14.535156 40 13.21875 C 40 11.902344 39.921875 11.425781 38.457031 11.757813 C 35.941406 12.328125 19.5 15.890625 18.84375 16.046875 C 18.1875 16.203125 18 16.59375 18 17.75 C 18 19.878906 18 40.746094 18 43 C 18 45.253906 16.257813 49 10 49 C 3.742188 49 3 45.003906 3 43 C 3 40.027344 5.25 38.109375 10.007813 38.109375 C 14.4375 38.109375 15 36.859375 15 35 C 15 28.367188 15 8.960938 15 8 C 15 7.039063 15.390625 6.390625 16.367188 6.175781 C 17.996094 5.816406 41.144531 1.046875 41.144531 1.046875 C 41.144531 1.046875 43 0.621094 43 3 Z " fill="#9a9a9a"/></g></svg>
