<?xml version="1.0" encoding="UTF-8"?>
<svg xmlns="http://www.w3.org/2000/svg" xmlns:xlink="http://www.w3.org/1999/xlink" viewBox="0 0 50 50" version="1.1" fill="#9a9a9a"><g id="surface1" fill="#9a9a9a"><path style=" " d="M 16 0 C 7.160156 0 0 7.160156 0 16 C 0 24.839844 7.160156 32 16 32 C 16.734375 32 17.449219 31.972656 18.15625 31.875 C 18.0625 32.574219 18 33.277344 18 34 C 18 42.824219 25.175781 50 34 50 C 42.824219 50 50 42.824219 50 34 C 50 25.175781 42.824219 18 34 18 C 33.277344 18 32.574219 18.0625 31.875 18.15625 C 31.972656 17.449219 32 16.734375 32 16 C 32 7.160156 24.839844 0 16 0 Z M 40.28125 0.28125 L 35.28125 5.28125 L 34.59375 6 L 35.28125 6.71875 L 40.28125 11.71875 L 41.71875 10.28125 L 38.4375 7 L 43 7 C 45.753906 7 48 9.246094 48 12 L 48 18 L 50 18 L 50 12 C 50 8.15625 46.84375 5 43 5 L 38.4375 5 L 41.71875 1.71875 Z M 16 2 C 23.761719 2 30 8.238281 30 16 C 30 16.941406 29.925781 17.773438 29.75 18.59375 C 24.34375 20.085938 20.085938 24.34375 18.59375 29.75 C 17.773438 29.925781 16.941406 30 16 30 C 8.238281 30 2 23.761719 2 16 C 2 8.238281 8.238281 2 16 2 Z M 17.09375 7.90625 C 15.292969 7.90625 13.914063 8.488281 12.8125 9.6875 C 11.8125 10.789063 11.210938 12.199219 10.8125 14 L 9.59375 14 L 9 15.3125 L 10.59375 15.3125 L 10.59375 16.40625 L 9.59375 16.40625 L 9 17.6875 L 10.6875 17.6875 C 11.386719 21.988281 13.492188 24.09375 17.09375 24.09375 C 18.394531 24.09375 19.5 23.695313 20.5 23.09375 L 20.5 20.8125 C 19.898438 21.414063 19.398438 21.800781 19 22 C 18.398438 22.300781 17.792969 22.40625 17.09375 22.40625 C 14.792969 22.40625 13.40625 20.792969 12.90625 17.59375 L 17.6875 17.59375 L 18.3125 16.3125 L 12.8125 16.3125 L 12.8125 15.1875 L 18.59375 15.1875 L 19.1875 13.90625 L 12.90625 13.90625 C 13.105469 12.605469 13.492188 11.707031 14.09375 10.90625 C 14.792969 10.007813 15.710938 9.5 16.8125 9.5 C 17.914063 9.5 19 10 20 11 L 21.09375 9.3125 C 19.792969 8.414063 18.394531 7.90625 17.09375 7.90625 Z M 34 20 C 41.742188 20 48 26.257813 48 34 C 48 41.742188 41.742188 48 34 48 C 26.257813 48 20 41.742188 20 34 C 20 26.257813 26.257813 20 34 20 Z M 33.59375 24.1875 L 33.59375 25.6875 C 32.992188 25.6875 32.414063 25.894531 31.8125 26.09375 C 31.210938 26.394531 30.710938 26.695313 30.3125 27.09375 C 29.914063 27.59375 29.511719 27.992188 29.3125 28.59375 C 29.011719 29.09375 28.90625 29.707031 28.90625 30.40625 C 28.90625 31.105469 28.988281 31.59375 29.1875 32.09375 C 29.289063 32.59375 29.601563 33.011719 30 33.3125 C 30.398438 33.613281 30.804688 33.894531 31.40625 34.09375 C 31.90625 34.292969 32.605469 34.488281 33.40625 34.6875 L 33.40625 40.59375 C 32.507813 40.394531 31.789063 40.101563 31.1875 39.5 C 30.6875 39 30.304688 38.195313 30.40625 37.09375 L 28.5 37.09375 C 28.601563 38.695313 29.101563 39.914063 30 40.8125 C 30.800781 41.710938 32 42.304688 33.5 42.40625 L 33.5 44.1875 L 34.6875 44.1875 L 34.6875 42.40625 C 35.488281 42.40625 36.085938 42.199219 36.6875 42 C 37.289063 41.699219 37.789063 41.398438 38.1875 41 C 38.585938 40.601563 38.988281 40.101563 39.1875 39.5 C 39.488281 39 39.59375 38.292969 39.59375 37.59375 C 39.59375 36.894531 39.488281 36.3125 39.1875 35.8125 C 38.988281 35.3125 38.710938 34.894531 38.3125 34.59375 C 37.914063 34.195313 37.492188 34.011719 37.09375 33.8125 C 36.695313 33.613281 36.394531 33.507813 36.09375 33.40625 L 34.8125 33 L 34.8125 27.5 C 36.210938 27.800781 37.011719 28.59375 37.3125 30.09375 L 39.1875 30.09375 C 38.886719 28.792969 38.386719 27.699219 37.6875 27 C 36.988281 26.300781 36.011719 25.789063 34.8125 25.6875 L 34.8125 24.1875 Z M 33.40625 27.59375 L 33.40625 32.8125 C 33.105469 32.710938 32.707031 32.507813 32.40625 32.40625 C 32.105469 32.207031 31.792969 32.105469 31.59375 31.90625 C 31.394531 31.707031 31.195313 31.488281 31.09375 31.1875 C 30.992188 30.886719 30.90625 30.585938 30.90625 30.1875 C 30.90625 29.386719 31.09375 28.710938 31.59375 28.3125 C 32.09375 27.8125 32.804688 27.59375 33.40625 27.59375 Z M 0 32 L 0 38 C 0 41.84375 3.15625 45 7 45 L 11.5625 45 L 8.28125 48.28125 L 9.71875 49.71875 L 14.71875 44.71875 L 15.40625 44 L 14.71875 43.28125 L 9.71875 38.28125 L 8.28125 39.71875 L 11.5625 43 L 7 43 C 4.246094 43 2 40.753906 2 38 L 2 32 Z M 34.6875 35.09375 C 35.085938 35.195313 35.414063 35.398438 35.8125 35.5 C 36.113281 35.601563 36.386719 35.800781 36.6875 36 C 36.988281 36.199219 37.210938 36.386719 37.3125 36.6875 C 37.414063 36.988281 37.5 37.414063 37.5 37.8125 C 37.5 38.210938 37.414063 38.699219 37.3125 39 C 37.210938 39.398438 36.988281 39.707031 36.6875 39.90625 C 36.488281 40.105469 36.113281 40.304688 35.8125 40.40625 C 35.511719 40.507813 35.085938 40.585938 34.6875 40.6875 Z " fill="#9a9a9a"/></g></svg>
