<?xml version="1.0" encoding="UTF-8"?>
<svg xmlns="http://www.w3.org/2000/svg" xmlns:xlink="http://www.w3.org/1999/xlink" viewBox="0 0 50 50" version="1.1" fill="#9a9a9a"><g id="surface1" fill="#9a9a9a"><path style=" " d="M 25 2 C 21.652344 2 18.46875 2.722656 15.597656 4.015625 C 15.460938 4.042969 15.332031 4.101563 15.21875 4.1875 C 13.0625 5.203125 11.09375 6.554688 9.367188 8.160156 C 9.207031 8.242188 9.074219 8.367188 8.984375 8.523438 C 4.679688 12.703125 2 18.535156 2 25 C 2 32.675781 5.777344 39.476563 11.5625 43.65625 C 11.648438 43.738281 11.746094 43.808594 11.851563 43.859375 C 13.777344 45.203125 15.917969 46.257813 18.207031 46.96875 C 18.371094 47.070313 18.566406 47.125 18.761719 47.121094 C 20.746094 47.683594 22.835938 48 25 48 C 36.875 48 46.664063 38.972656 47.875 27.417969 C 47.945313 27.238281 47.960938 27.039063 47.921875 26.847656 C 47.96875 26.238281 48 25.621094 48 25 C 48 23.1875 47.78125 21.421875 47.386719 19.730469 C 47.375 19.652344 47.359375 19.574219 47.332031 19.5 C 44.863281 9.460938 35.796875 2 25 2 Z M 25 4 C 28.433594 4 31.667969 4.839844 34.527344 6.296875 C 33.390625 6.132813 32.273438 6.015625 31.203125 5.96875 C 30.707031 5.949219 30.21875 5.9375 29.738281 5.9375 C 23.753906 5.953125 19.269531 7.535156 17.222656 8.398438 C 17.023438 7.308594 16.90625 6.351563 16.859375 5.632813 C 19.359375 4.582031 22.113281 4 25 4 Z M 14.925781 6.566406 C 15.335938 10.492188 17.058594 18.066406 23.875 25.253906 C 23.179688 27.609375 22.296875 29.679688 21.328125 31.496094 C 20.171875 30.558594 18.089844 28.644531 16.109375 25.78125 C 13.519531 22.03125 11.0625 16.636719 10.851563 9.488281 C 12.085938 8.363281 13.449219 7.375 14.925781 6.566406 Z M 29.269531 7.953125 C 32.207031 7.898438 35.5 8.253906 38.96875 9.34375 C 41.550781 11.644531 43.570313 14.566406 44.765625 17.890625 C 40.410156 15.835938 36.246094 14.972656 32.601563 14.765625 C 31.894531 14.726563 31.210938 14.714844 30.546875 14.71875 C 29.882813 14.722656 29.238281 14.75 28.621094 14.792969 C 24.441406 15.078125 21.5 16.050781 20.101563 16.625 C 18.90625 14.347656 18.152344 12.226563 17.671875 10.371094 C 19.324219 9.648438 23.589844 8.058594 29.269531 7.953125 Z M 8.960938 11.449219 C 9.527344 18.101563 11.9375 23.257813 14.46875 26.917969 C 16.78125 30.265625 19.085938 32.296875 20.316406 33.246094 C 18.910156 35.507813 17.398438 37.273438 15.996094 38.660156 C 13.789063 37.03125 6.757813 31.117188 4.445313 20.679688 C 5.167969 17.207031 6.757813 14.058594 8.960938 11.449219 Z M 30.5625 16.71875 C 34.816406 16.683594 40.015625 17.542969 45.515625 20.507813 C 45.832031 21.957031 46 23.457031 46 25 C 46 25.164063 45.992188 25.328125 45.988281 25.492188 C 43.367188 24.320313 38.753906 22.777344 32.699219 22.917969 C 30.433594 22.96875 27.964844 23.265625 25.34375 23.894531 C 23.589844 22.050781 22.199219 20.191406 21.09375 18.378906 C 22.421875 17.878906 25.164063 17.03125 28.753906 16.785156 C 29.335938 16.746094 29.9375 16.722656 30.5625 16.71875 Z M 32.464844 24.925781 C 32.226563 26.394531 31.613281 29.15625 30.121094 32.308594 C 28.167969 36.425781 24.730469 41.242188 18.652344 45 C 17.042969 44.484375 15.511719 43.792969 14.09375 42.925781 C 17.292969 40.605469 22.972656 35.328125 25.78125 25.847656 C 28.164063 25.273438 30.402344 24.996094 32.464844 24.925781 Z M 34.480469 24.9375 C 37.140625 25.023438 39.441406 25.4375 41.332031 25.957031 C 41.03125 28.664063 39.433594 37.707031 31.566406 44.933594 C 29.5 45.613281 27.296875 46 25 46 C 23.730469 46 22.496094 45.875 21.292969 45.65625 C 26.761719 41.839844 30.023438 37.183594 31.925781 33.164063 C 33.667969 29.492188 34.269531 26.480469 34.480469 24.9375 Z M 4.03125 26.089844 C 7.0625 33.699219 12.210938 38.289063 14.5 40.042969 C 13.671875 40.746094 12.910156 41.320313 12.320313 41.71875 C 7.542969 38.089844 4.359375 32.476563 4.03125 26.089844 Z M 43.277344 26.5625 C 44.3125 26.933594 45.1875 27.308594 45.832031 27.625 C 45.050781 33.90625 41.496094 39.308594 36.4375 42.601563 C 41.507813 36.171875 42.90625 29.414063 43.277344 26.5625 Z " fill="#9a9a9a"/></g></svg>
