<?xml version="1.0" encoding="UTF-8"?>
<svg xmlns="http://www.w3.org/2000/svg" xmlns:xlink="http://www.w3.org/1999/xlink" viewBox="0 0 50 50" version="1.1" fill="#9a9a9a"><g id="surface1" fill="#9a9a9a"><path style=" " d="M 47.078125 2.746094 L 45.792969 3.023438 C 40.433594 4.167969 33.75 9.515625 28.175781 14.542969 C 22.605469 19.566406 18.261719 24.328125 18.261719 24.328125 L 1.585938 41 L 8.09375 47.507813 L 22.757813 28.65625 L 23.707031 27.707031 C 23.890625 27.523438 23.984375 27.457031 24.035156 27.425781 C 24.070313 27.457031 24.128906 27.511719 24.210938 27.613281 L 29.824219 35.472656 L 30.65625 34.753906 C 30.65625 34.753906 45.964844 21.613281 47 4.058594 Z M 44.746094 5.546875 C 43.113281 19.808594 32.167969 30.589844 30.136719 32.46875 L 28.332031 29.945313 C 28.425781 29.835938 28.488281 29.761719 28.609375 29.625 C 29.121094 29.035156 29.855469 28.195313 30.753906 27.105469 C 32.558594 24.925781 35.035156 21.75 37.832031 17.554688 C 41.039063 12.742188 41.765625 8.527344 41.9375 6.839844 C 42.917969 6.316406 43.871094 5.859375 44.746094 5.546875 Z M 39.734375 8.121094 C 39.359375 10.023438 38.449219 13.023438 36.167969 16.445313 C 33.417969 20.574219 30.984375 23.691406 29.214844 25.828125 C 28.34375 26.882813 27.648438 27.683594 27.136719 28.269531 L 25.800781 26.402344 L 25.789063 26.386719 C 25.519531 26.035156 25.109375 25.550781 24.375 25.425781 C 23.640625 25.300781 22.910156 25.675781 22.292969 26.292969 L 22 26.585938 L 20.390625 24.972656 C 21.726563 23.546875 25.207031 19.910156 29.515625 16.027344 C 32.742188 13.117188 36.378906 10.226563 39.734375 8.121094 Z M 19 26.414063 L 20.671875 28.082031 L 17.96875 31.554688 L 15.914063 29.5 Z M 14.5 30.914063 L 16.734375 33.144531 L 7.90625 44.492188 L 4.414063 41 Z " fill="#9a9a9a"/></g></svg>
