<?xml version="1.0" encoding="UTF-8"?>
<svg xmlns="http://www.w3.org/2000/svg" xmlns:xlink="http://www.w3.org/1999/xlink" viewBox="0 0 50 50" version="1.1" fill="#9a9a9a"><g id="surface1" fill="#9a9a9a"><path style=" " d="M 25 2 C 18.890625 2 12.84375 3 12.84375 3 C 12.351563 3.078125 11.992188 3.503906 12 4 L 12 9 C 11.996094 9.292969 12.121094 9.574219 12.347656 9.769531 C 12.570313 9.960938 12.863281 10.046875 13.15625 10 C 13.15625 10 13.53125 9.949219 14.03125 9.875 L 14.9375 25 L 12 25 C 11.96875 25 11.9375 25 11.90625 25 C 11.875 25 11.84375 25 11.8125 25 C 11.335938 25.089844 10.992188 25.511719 11 26 L 11 30 C 11 30.550781 11.449219 31 12 31 L 13 31 L 13 47 C 13 47.550781 13.449219 48 14 48 L 17 48 C 17.550781 48 18 47.550781 18 47 L 18 36 L 32 36 L 32 47 C 32 47.550781 32.449219 48 33 48 L 36 48 C 36.550781 48 37 47.550781 37 47 L 37 31 L 38 31 C 38.550781 31 39 30.550781 39 30 L 39 26 C 39 25.449219 38.550781 25 38 25 L 35.0625 25 L 35.96875 9.875 C 36.46875 9.949219 36.84375 10 36.84375 10 C 37.136719 10.046875 37.429688 9.960938 37.652344 9.769531 C 37.878906 9.574219 38.003906 9.292969 38 9 L 38 4 C 38.007813 3.503906 37.648438 3.078125 37.15625 3 C 37.15625 3 31.109375 2 25 2 Z M 25 4 C 30.21875 4 34.871094 4.699219 36 4.875 L 36 7.84375 C 34.570313 7.625 30.328125 7.015625 25.21875 7 C 25.117188 6.972656 25.011719 6.960938 24.90625 6.96875 C 24.863281 6.976563 24.820313 6.988281 24.78125 7 C 19.671875 7.015625 15.429688 7.625 14 7.84375 L 14 4.875 C 15.128906 4.699219 19.78125 4 25 4 Z M 24 9 L 24 25 L 21.46875 25 L 21.03125 9.125 C 21.996094 9.066406 22.984375 9.019531 24 9 Z M 26 9 C 27.015625 9.019531 28.003906 9.066406 28.96875 9.125 L 28.53125 25 L 26 25 Z M 19.03125 9.3125 L 19.46875 25 L 16.9375 25 L 16.03125 9.59375 C 16.898438 9.488281 17.898438 9.414063 19.03125 9.3125 Z M 30.96875 9.3125 C 32.101563 9.414063 33.101563 9.488281 33.96875 9.59375 L 33.0625 25 L 30.53125 25 Z M 13 27 L 37 27 L 37 29 L 13 29 Z M 15 31 L 16 31 L 16 34.53125 C 15.867188 34.808594 15.867188 35.128906 16 35.40625 L 16 46 L 15 46 Z M 18 31 L 32 31 L 32 34 L 18 34 Z M 34 31 L 35 31 L 35 46 L 34 46 L 34 35.1875 C 34.027344 35.054688 34.027344 34.914063 34 34.78125 Z " fill="#9a9a9a"/></g></svg>
