<?xml version="1.0" encoding="UTF-8"?>
<svg xmlns="http://www.w3.org/2000/svg" xmlns:xlink="http://www.w3.org/1999/xlink" viewBox="0 0 50 50" version="1.1" fill="#9a9a9a"><g id="surface1" fill="#9a9a9a"><path style=" " d="M 28.625 2 C 28.285156 2.003906 27.941406 2.019531 27.59375 2.0625 C 26.902344 2.152344 26.144531 2.386719 25.5625 2.96875 L 2.84375 25.6875 C 1.722656 26.808594 1.722656 28.660156 2.84375 29.78125 L 20.21875 47.15625 C 21.339844 48.277344 23.191406 48.277344 24.3125 47.15625 L 47.03125 24.4375 C 47.609375 23.859375 47.847656 23.09375 47.9375 22.40625 C 48.027344 21.71875 48 21.039063 48 20.375 L 48 5.5 C 48 3.578125 46.421875 2 44.5 2 L 29.625 2 C 29.300781 2 28.964844 1.996094 28.625 2 Z M 28.65625 4 C 28.949219 3.992188 29.285156 4 29.625 4 L 44.5 4 C 45.339844 4 46 4.660156 46 5.5 L 46 20.375 C 46 21.070313 45.996094 21.699219 45.9375 22.15625 C 45.878906 22.613281 45.785156 22.839844 45.625 23 L 22.90625 45.75 C 22.550781 46.105469 21.980469 46.105469 21.625 45.75 L 21.5 45.59375 L 4.25 28.375 C 3.894531 28.019531 3.894531 27.449219 4.25 27.09375 L 27 4.375 C 27.15625 4.21875 27.414063 4.121094 27.875 4.0625 C 28.105469 4.03125 28.363281 4.007813 28.65625 4 Z M 39 7 C 36.800781 7 35 8.800781 35 11 C 35 13.199219 36.800781 15 39 15 C 41.199219 15 43 13.199219 43 11 C 43 8.800781 41.199219 7 39 7 Z M 39 9 C 40.117188 9 41 9.882813 41 11 C 41 12.117188 40.117188 13 39 13 C 37.882813 13 37 12.117188 37 11 C 37 9.882813 37.882813 9 39 9 Z M 27.53125 17.71875 C 27.0625 17.722656 26.585938 17.8125 26.125 17.96875 C 25.511719 18.179688 24.933594 18.535156 24.40625 19.0625 C 23.878906 19.589844 23.507813 20.132813 23.25 20.6875 C 22.992188 21.242188 22.777344 21.8125 22.625 22.40625 L 21.65625 21.4375 L 20.9375 22.1875 L 22.3125 23.59375 C 22.191406 23.914063 22.0625 24.234375 21.875 24.59375 C 21.691406 24.957031 21.472656 25.277344 21.21875 25.53125 C 20.898438 25.851563 20.539063 26.09375 20.15625 26.28125 C 19.773438 26.46875 19.359375 26.605469 18.9375 26.6875 C 18.515625 26.769531 18.085938 26.792969 17.65625 26.78125 C 17.230469 26.769531 16.851563 26.734375 16.46875 26.65625 L 16.15625 28.5 C 16.570313 28.585938 16.976563 28.714844 17.34375 28.875 C 17.710938 29.03125 18.058594 29.277344 18.375 29.59375 C 18.691406 29.910156 18.949219 30.242188 19.15625 30.59375 C 19.367188 30.945313 19.5625 31.292969 19.75 31.65625 C 19.960938 32.019531 20.148438 32.359375 20.34375 32.6875 C 20.539063 33.015625 20.789063 33.320313 21.0625 33.59375 C 21.488281 34.023438 21.972656 34.402344 22.5 34.71875 C 23.027344 35.035156 23.574219 35.207031 24.1875 35.25 L 24.5625 33.46875 C 24.210938 33.421875 23.851563 33.351563 23.46875 33.21875 C 23.085938 33.085938 22.761719 32.890625 22.5 32.625 C 22.246094 32.371094 22.03125 32.101563 21.875 31.8125 C 21.714844 31.523438 21.558594 31.222656 21.40625 30.9375 C 21.242188 30.664063 21.070313 30.371094 20.875 30.0625 C 20.679688 29.753906 20.410156 29.441406 20.09375 29.125 C 19.765625 28.796875 19.429688 28.546875 19.0625 28.375 C 18.695313 28.203125 18.3125 28.039063 17.90625 27.875 L 17.90625 27.8125 C 18.34375 27.855469 18.78125 27.886719 19.21875 27.90625 C 19.65625 27.929688 20.078125 27.914063 20.5 27.84375 C 20.921875 27.773438 21.351563 27.648438 21.75 27.46875 C 22.148438 27.285156 22.535156 26.996094 22.90625 26.625 C 23.136719 26.394531 23.324219 26.148438 23.46875 25.875 C 23.613281 25.601563 23.726563 25.328125 23.8125 25.0625 L 26.0625 27.3125 L 26.8125 26.59375 L 24.1875 23.96875 C 24.285156 23.671875 24.378906 23.378906 24.46875 23.09375 C 24.558594 22.808594 24.664063 22.527344 24.78125 22.25 C 24.898438 21.972656 25.015625 21.683594 25.1875 21.40625 C 25.355469 21.125 25.582031 20.859375 25.84375 20.59375 C 26.152344 20.285156 26.488281 20.050781 26.875 19.90625 C 27.257813 19.761719 27.65625 19.730469 28.0625 19.75 C 28.46875 19.773438 28.855469 19.855469 29.25 20.03125 C 29.644531 20.207031 30.015625 20.453125 30.34375 20.78125 C 31.132813 21.570313 31.472656 22.429688 31.34375 23.34375 C 31.21875 24.257813 30.691406 25.203125 29.75 26.1875 L 31.125 27.59375 C 32.5625 26.203125 33.300781 24.808594 33.3125 23.40625 C 33.324219 22 32.71875 20.6875 31.5 19.46875 C 30.996094 18.964844 30.445313 18.578125 29.84375 18.28125 C 29.238281 17.984375 28.628906 17.808594 28 17.75 C 27.84375 17.734375 27.6875 17.71875 27.53125 17.71875 Z " fill="#9a9a9a"/></g></svg>
