<?xml version="1.0" encoding="UTF-8"?>
<svg xmlns="http://www.w3.org/2000/svg" xmlns:xlink="http://www.w3.org/1999/xlink" viewBox="0 0 50 50" version="1.1" fill="#9a9a9a"><g id="surface1" fill="#9a9a9a"><path style=" " d="M 29.550781 3.96875 C 29.035156 3.96875 28.523438 4.164063 28.136719 4.550781 L 26.050781 6.636719 C 25.277344 7.410156 25.277344 8.691406 26.050781 9.464844 L 31.21875 14.636719 C 30.429688 15.664063 30 16.746094 29.648438 17.625 C 29.359375 18.347656 29.117188 18.835938 28.875 19.152344 C 28.59375 19.257813 27.855469 19.515625 27.28125 19.691406 C 24.980469 20.40625 23.257813 20.933594 22.070313 22.1875 C 20.964844 23.355469 20.457031 24.976563 19.753906 27.171875 C 19.558594 27.78125 19.265625 28.601563 19.160156 28.871094 C 18.84375 29.113281 18.351563 29.359375 17.625 29.652344 L 17.625 29.648438 C 16.746094 30 15.667969 30.433594 14.636719 31.222656 L 9.53125 26.117188 C 9.144531 25.730469 8.632813 25.535156 8.117188 25.535156 C 7.601563 25.535156 7.089844 25.730469 6.703125 26.117188 L 4.617188 28.203125 C 3.84375 28.976563 3.84375 30.257813 4.617188 31.03125 L 6.585938 33 L 4.585938 35 C 3.8125 35.773438 3.8125 37.054688 4.585938 37.828125 L 6.171875 39.414063 L 4.878906 40.707031 C 3.714844 41.871094 3.714844 43.785156 4.878906 44.949219 L 5.050781 45.121094 C 6.214844 46.285156 8.128906 46.285156 9.292969 45.121094 L 10.585938 43.828125 L 12.171875 45.414063 C 12.945313 46.1875 14.226563 46.1875 15 45.414063 L 17 43.414063 L 18.992188 45.40625 C 19.765625 46.179688 21.046875 46.179688 21.820313 45.40625 L 23.90625 43.320313 C 24.679688 42.546875 24.679688 41.265625 23.90625 40.492188 L 19.003906 35.59375 C 19.257813 35.472656 19.519531 35.355469 19.851563 35.21875 C 20.949219 34.78125 22.363281 34.226563 23.597656 32.988281 C 24.503906 32.082031 24.859375 30.902344 25.46875 29 C 25.617188 28.53125 25.828125 27.871094 26.035156 27.296875 C 26.136719 27.011719 26.242188 26.742188 26.328125 26.546875 C 26.386719 26.410156 26.398438 26.394531 26.410156 26.363281 C 26.445313 26.347656 26.464844 26.332031 26.605469 26.269531 C 26.804688 26.179688 27.070313 26.078125 27.359375 25.976563 C 27.933594 25.769531 28.59375 25.566406 29.0625 25.421875 C 30.925781 24.839844 32.089844 24.5 32.988281 23.597656 C 34.226563 22.363281 34.78125 20.949219 35.21875 19.855469 C 35.351563 19.519531 35.46875 19.257813 35.589844 19.003906 L 40.515625 23.925781 C 41.285156 24.699219 42.570313 24.699219 43.34375 23.925781 L 45.425781 21.84375 C 46.199219 21.070313 46.199219 19.785156 45.425781 19.015625 L 43.414063 17 L 45.414063 15 C 46.1875 14.226563 46.1875 12.945313 45.414063 12.171875 L 43.828125 10.585938 L 45.121094 9.292969 C 46.285156 8.128906 46.285156 6.214844 45.121094 5.050781 L 44.949219 4.878906 C 44.367188 4.296875 43.597656 4.007813 42.828125 4.007813 C 42.058594 4.007813 41.289063 4.296875 40.707031 4.878906 L 39.414063 6.171875 L 37.828125 4.585938 C 37.441406 4.199219 36.929688 4.007813 36.414063 4.007813 C 35.898438 4.003906 35.386719 4.199219 35 4.585938 L 33 6.585938 L 30.964844 4.550781 C 30.578125 4.164063 30.066406 3.972656 29.550781 3.96875 Z M 29.550781 5.964844 L 44.011719 20.425781 L 44.015625 20.425781 L 41.925781 22.511719 L 27.464844 8.050781 Z M 42.828125 5.992188 C 43.082031 5.992188 43.335938 6.09375 43.535156 6.292969 L 43.707031 6.464844 C 44.105469 6.863281 44.105469 7.480469 43.707031 7.878906 L 42.414063 9.171875 L 40.828125 7.585938 L 42.121094 6.292969 C 42.320313 6.09375 42.574219 5.992188 42.828125 5.992188 Z M 36.410156 6 L 36.414063 6 L 44 13.585938 L 42 15.585938 L 34.414063 8 Z M 32.769531 16.1875 L 34.199219 17.613281 C 33.910156 18.109375 33.570313 18.585938 33.359375 19.109375 C 32.921875 20.207031 32.484375 21.273438 31.578125 22.183594 C 31.144531 22.613281 30.316406 22.933594 28.46875 23.511719 C 28 23.65625 27.320313 23.867188 26.6875 24.09375 C 26.371094 24.207031 26.066406 24.324219 25.796875 24.441406 C 25.523438 24.5625 25.300781 24.652344 25.027344 24.890625 L 24.964844 24.941406 L 24.90625 25.011719 C 24.679688 25.285156 24.605469 25.488281 24.492188 25.75 C 24.378906 26.011719 24.265625 26.308594 24.15625 26.621094 C 23.929688 27.242188 23.714844 27.921875 23.5625 28.386719 L 23.5625 28.390625 C 22.957031 30.28125 22.613281 31.144531 22.183594 31.578125 C 21.277344 32.484375 20.203125 32.925781 19.109375 33.363281 C 18.582031 33.574219 18.109375 33.910156 17.613281 34.199219 L 16.1875 32.773438 C 16.890625 32.292969 17.589844 31.816406 18.367188 31.503906 C 19.164063 31.1875 19.960938 30.898438 20.644531 30.28125 L 20.78125 30.15625 L 20.863281 30 C 21.1875 29.375 21.441406 28.464844 21.660156 27.78125 C 22.355469 25.609375 22.890625 24.230469 23.519531 23.5625 L 23.523438 23.5625 C 24.1875 22.859375 25.601563 22.308594 27.875 21.601563 C 28.527344 21.398438 29.390625 21.160156 29.988281 20.863281 L 30.160156 20.78125 L 30.285156 20.640625 C 30.902344 19.957031 31.1875 19.160156 31.503906 18.371094 L 31.503906 18.367188 C 31.816406 17.589844 32.292969 16.890625 32.769531 16.1875 Z M 8.117188 27.53125 L 22.492188 41.90625 L 20.40625 43.992188 L 6.03125 29.617188 Z M 8 34.414063 L 15.585938 42 L 13.585938 44 L 6 36.414063 Z M 7.585938 40.828125 L 9.171875 42.414063 L 7.878906 43.707031 C 7.480469 44.105469 6.863281 44.105469 6.464844 43.707031 L 6.292969 43.535156 C 5.894531 43.136719 5.894531 42.519531 6.292969 42.121094 Z " fill="#9a9a9a"/></g></svg>
