<?xml version="1.0" encoding="UTF-8"?>
<svg xmlns="http://www.w3.org/2000/svg" xmlns:xlink="http://www.w3.org/1999/xlink" viewBox="0 0 50 50" version="1.1" fill="#9a9a9a"><g id="surface1" fill="#9a9a9a"><path style=" " d="M 7 12 C 3.300781 12 0 15.300781 0 19 L 0 37.46875 C 0 41.066406 2.933594 44 6.53125 44 L 14 44 C 14 47.300781 16.699219 50 20 50 C 23.300781 50 26 47.300781 26 44 L 49 44 C 49.359375 44.003906 49.695313 43.816406 49.878906 43.503906 C 50.058594 43.191406 50.058594 42.808594 49.878906 42.496094 C 49.695313 42.183594 49.359375 41.996094 49 42 L 43 42 L 43 36 C 43 28.90625 39.765625 22.945313 35.96875 18.75 C 34.070313 16.652344 32.03125 14.964844 30.125 13.8125 C 28.21875 12.660156 26.5 12 25 12 Z M 7 14 L 25 14 C 25.824219 14 27.375 14.492188 29.09375 15.53125 C 30.8125 16.570313 32.730469 18.109375 34.5 20.0625 C 38.039063 23.972656 41 29.511719 41 36 L 41 42 L 25.65625 42 C 24.832031 39.671875 22.605469 38 20 38 C 17.394531 38 15.167969 39.671875 14.34375 42 L 6.53125 42 C 4.011719 42 2 39.984375 2 37.46875 L 2 19 C 2 16.585938 4.582031 14 7 14 Z M 8 17 C 6.339844 17 5 18.339844 5 20 L 5 26 C 5 26.550781 5.449219 27 6 27 L 14 27 C 14.550781 27 15 26.550781 15 26 L 15 18 C 15 17.449219 14.550781 17 14 17 Z M 18.8125 17 C 18.335938 17.089844 17.992188 17.511719 18 18 L 18 26 C 18 26.550781 18.449219 27 19 27 L 34 27 C 34.347656 27.003906 34.667969 26.824219 34.851563 26.535156 C 35.039063 26.242188 35.058594 25.875 34.90625 25.5625 C 33.847656 23.441406 32.273438 21.351563 30.40625 19.75 C 28.539063 18.148438 26.332031 17 24 17 L 19 17 C 18.96875 17 18.9375 17 18.90625 17 C 18.875 17 18.84375 17 18.8125 17 Z M 8 19 L 13 19 L 13 25 L 7 25 L 7 20 C 7 19.621094 7.621094 19 8 19 Z M 20 19 L 24 19 C 25.667969 19 27.460938 19.851563 29.09375 21.25 C 30.296875 22.28125 31.316406 23.628906 32.1875 25 L 20 25 Z M 20 40 C 22.222656 40 24 41.777344 24 44 C 24 46.222656 22.222656 48 20 48 C 17.777344 48 16 46.222656 16 44 C 16 41.777344 17.777344 40 20 40 Z " fill="#9a9a9a"/></g></svg>
