<?xml version="1.0" encoding="UTF-8" standalone="no"?>
<svg
   xmlns:dc="http://purl.org/dc/elements/1.1/"
   xmlns:cc="http://creativecommons.org/ns#"
   xmlns:rdf="http://www.w3.org/1999/02/22-rdf-syntax-ns#"
   xmlns:svg="http://www.w3.org/2000/svg"
   xmlns="http://www.w3.org/2000/svg"
   xmlns:sodipodi="http://sodipodi.sourceforge.net/DTD/sodipodi-0.dtd"
   xmlns:inkscape="http://www.inkscape.org/namespaces/inkscape"
   viewBox="0 0 50 50"
   version="1.1"
   fill="#000000"
   id="svg2"
   inkscape:version="0.91 r13725"
   sodipodi:docname="icons8-banknotes_filled.svg">
  <metadata
     id="metadata11">
    <rdf:RDF>
      <cc:Work
         rdf:about="">
        <dc:format>image/svg+xml</dc:format>
        <dc:type
           rdf:resource="http://purl.org/dc/dcmitype/StillImage" />
      </cc:Work>
    </rdf:RDF>
  </metadata>
  <defs
     id="defs9" />
  <sodipodi:namedview
     pagecolor="#ffffff"
     bordercolor="#666666"
     borderopacity="1"
     objecttolerance="10"
     gridtolerance="10"
     guidetolerance="10"
     inkscape:pageopacity="0"
     inkscape:pageshadow="2"
     inkscape:window-width="961"
     inkscape:window-height="701"
     id="namedview7"
     showgrid="false"
     inkscape:zoom="4.72"
     inkscape:cx="26.165254"
     inkscape:cy="25"
     inkscape:window-x="0"
     inkscape:window-y="0"
     inkscape:window-maximized="0"
     inkscape:current-layer="svg2" />
  <g
     id="surface1"
     transform="matrix(0.70307596,0,0,0.70307596,7.3462021,8.5326427)"
     style="fill:#000000">
    <path
       style="fill:#000000"
       d="m 42.71875,0.84375 -10.0625,2.6875 c -0.01172,0.00391 -0.01953,-0.00391 -0.03125,0 l -22.34375,6 c -0.0078,0.00391 -0.02344,-0.00391 -0.03125,0 l -10.03125,2.6875 2.34375,8.6875 c 0.015625,0.08594 0.039063,0.191406 0.0625,0.28125 L 6,33.65625 6,39.25 c 0,0.0039 0,0.02734 0,0.03125 L 6,46 l 7.53125,0 c 0.0039,0 0.02734,0 0.03125,0 l 28.875,0 c 0.0039,0 0.02734,0 0.03125,0 L 50,46 50,39.28125 c 0,-0.0039 0,-0.02734 0,-0.03125 L 50,20 47.875,20 Z m -8.96875,4.5 c 1.3125,-0.113281 2.089844,0.730469 3.0625,1.96875 0.449219,0.574219 0.835938,1.082031 1.34375,1.375 0.585938,0.339844 1.367188,0.40625 2.25,0.5 1.496094,0.15625 2.570313,0.316406 2.78125,1.09375 L 45.78125,20 l -6.1875,0 c -0.01172,0 -0.01953,0 -0.03125,0 l -6.65625,0 C 32.945313,19.023438 32.832031,18.011719 32.5625,17 31.277344,12.199219 26.769531,9.261719 22.5,10.40625 18.574219,11.457031 16.226563,15.605469 16.875,20 l -0.4375,0 c -0.01172,0 -0.01953,0 -0.03125,0 L 6,20 6,26 4.53125,20.5625 c -0.117187,-0.738281 0.707031,-1.398437 1.875,-2.25 C 7.125,17.789063 7.722656,17.339844 8.0625,16.75 c 0.292969,-0.507812 0.398438,-1.125 0.5,-1.84375 0.253906,-1.777344 0.5625,-2.984375 2.25,-3.4375 l 22.34375,-6 C 33.367188,5.410156 33.5625,5.359375 33.75,5.34375 Z m 5.21875,7.96875 c -1.378906,0 -2.5,1.121094 -2.5,2.5 0,1.378906 1.121094,2.5 2.5,2.5 1.378906,0 2.5,-1.121094 2.5,-2.5 0,-1.378906 -1.121094,-2.5 -2.5,-2.5 z M 16.4375,22 l 23.125,0 c 1.746094,0 2.355469,1.097656 3.0625,2.75 0.285156,0.667969 0.523438,1.242188 0.9375,1.65625 0.480469,0.480469 1.203125,0.746094 2.03125,1.0625 C 47,28.007813 48,28.441406 48,29.25 l 0,10 c 0,0.363281 -0.660156,0.660156 -1.46875,0.96875 -0.582031,0.222656 -1.152344,0.433594 -1.53125,0.8125 -0.328125,0.328125 -0.515625,0.777344 -0.71875,1.25 C 43.785156,43.449219 43.433594,44 42.4375,44 l -28.875,0 C 12.566406,44 12.21875,43.445313 11.71875,42.28125 11.515625,41.808594 11.328125,41.359375 11,41.03125 10.621094,40.652344 10.050781,40.441406 9.46875,40.21875 8.660156,39.910156 8,39.613281 8,39.25 L 8,33.5 8.03125,33.5 8,33.375 8,29.25 c 0,-0.808594 1,-1.242187 2.40625,-1.78125 0.828125,-0.316406 1.550781,-0.585937 2.03125,-1.0625 C 12.851563,25.992188 13.089844,25.421875 13.375,24.75 14.082031,23.097656 14.691406,22 16.4375,22 Z M 28,24 c -4.417969,0 -8,4.03125 -8,9 0,4.96875 3.582031,9 8,9 4.417969,0 8,-4.03125 8,-9 0,-4.96875 -3.582031,-9 -8,-9 z M 13.5,31 C 12.121094,31 11,32.121094 11,33.5 11,34.878906 12.121094,36 13.5,36 14.878906,36 16,34.878906 16,33.5 16,32.121094 14.878906,31 13.5,31 Z m 29,0 C 41.121094,31 40,32.121094 40,33.5 40,34.878906 41.121094,36 42.5,36 43.878906,36 45,34.878906 45,33.5 45,32.121094 43.878906,31 42.5,31 Z"
       id="path5"
       inkscape:connector-curvature="0" />
  </g>
</svg>
