<?xml version="1.0" encoding="UTF-8"?>
<svg xmlns="http://www.w3.org/2000/svg" xmlns:xlink="http://www.w3.org/1999/xlink" viewBox="0 0 50 50" version="1.1" fill="#9a9a9a"><g id="surface1" fill="#9a9a9a"><path style=" " d="M 18.90625 1.96875 C 18.863281 1.976563 18.820313 1.988281 18.78125 2 C 18.316406 2.105469 17.988281 2.523438 18 3 L 18 5.8125 C 17.875 6.097656 17.398438 7.199219 16.90625 8.71875 C 16.347656 10.445313 15.777344 12.449219 16 14.125 C 16.328125 16.570313 17.058594 18.875 17 20.96875 C 16.910156 24.019531 15.480469 27.269531 14.59375 30.625 C 13.265625 35.640625 12.792969 41.589844 12.03125 45.8125 C 11.929688 46.328125 12.246094 46.832031 12.75 46.96875 C 12.75 46.96875 16.917969 48 25 48 C 33.082031 48 37.25 46.96875 37.25 46.96875 C 37.753906 46.832031 38.070313 46.328125 37.96875 45.8125 C 37.207031 41.589844 36.734375 35.640625 35.40625 30.625 C 34.519531 27.269531 33.089844 24.019531 33 20.96875 C 32.941406 18.875 33.671875 16.570313 34 14.125 C 34.222656 12.449219 33.652344 10.445313 33.09375 8.71875 C 32.601563 7.199219 32.125 6.097656 32 5.8125 L 32 3 C 32.007813 2.691406 31.871094 2.398438 31.632813 2.203125 C 31.398438 2.007813 31.082031 1.933594 30.78125 2 C 30.316406 2.105469 29.988281 2.523438 30 3 L 30 6 C 30 10.773438 25.910156 13.941406 25 14.625 C 24.085938 13.953125 20 10.835938 20 6 C 20 5.96875 20 5.9375 20 5.90625 L 20 3 C 20.011719 2.710938 19.894531 2.433594 19.6875 2.238281 C 19.476563 2.039063 19.191406 1.941406 18.90625 1.96875 Z M 18.75 9.75 C 20.417969 14.199219 24.4375 16.84375 24.4375 16.84375 C 24.777344 17.074219 25.222656 17.074219 25.5625 16.84375 C 25.5625 16.84375 29.578125 14.164063 31.25 9.75 C 31.710938 11.28125 32.109375 13.050781 32 13.875 C 31.707031 16.074219 30.925781 18.464844 31 21.03125 C 31.105469 24.644531 32.671875 28.03125 33.5 31.15625 C 34.671875 35.570313 35.171875 40.882813 35.875 45.15625 C 34.890625 45.367188 31.726563 46 25 46 C 18.273438 46 15.109375 45.367188 14.125 45.15625 C 14.828125 40.882813 15.328125 35.570313 16.5 31.15625 C 17.328125 28.03125 18.894531 24.644531 19 21.03125 C 19.074219 18.464844 18.292969 16.074219 18 13.875 C 17.890625 13.050781 18.289063 11.28125 18.75 9.75 Z " fill="#9a9a9a"/></g></svg>
