<?xml version="1.0" encoding="UTF-8"?>
<svg xmlns="http://www.w3.org/2000/svg" xmlns:xlink="http://www.w3.org/1999/xlink" viewBox="0 0 50 50" version="1.1" fill="#9a9a9a"><g id="surface1" fill="#9a9a9a"><path style=" " d="M 6 0 C 2.699219 0 0 2.699219 0 6 C 0 9.300781 2.699219 12 6 12 C 9.300781 12 12 9.300781 12 6 C 12 2.699219 9.300781 0 6 0 Z M 6 2 C 8.222656 2 10 3.777344 10 6 C 10 8.222656 8.222656 10 6 10 C 3.777344 10 2 8.222656 2 6 C 2 3.777344 3.777344 2 6 2 Z M 31.40625 2 C 30.765625 2.003906 30.132813 2.050781 29.5 2.125 C 24.433594 2.714844 19.640625 5.363281 15.96875 9.03125 C 13.289063 11.710938 11.085938 15.082031 10.46875 22.5625 C 10.46875 22.574219 10.46875 22.582031 10.46875 22.59375 C 10.457031 22.613281 10.445313 22.636719 10.4375 22.65625 C 10.4375 22.679688 10.4375 22.695313 10.4375 22.71875 C 10.4375 22.75 10.4375 22.78125 10.4375 22.8125 C 10.441406 22.886719 10.449219 22.960938 10.46875 23.03125 C 10.46875 23.0625 10.46875 23.09375 10.46875 23.125 C 10.535156 25.214844 10.894531 27.3125 11.65625 29.3125 C 11.703125 29.539063 11.886719 30.546875 11.90625 31.59375 C 11.925781 32.640625 11.683594 33.660156 11.40625 33.9375 C 10.007813 35.335938 8.28125 36.730469 6.75 37.9375 C 5.226563 39.136719 3.90625 40.125 3.09375 40.9375 L 3.09375 40.96875 C 2.183594 41.894531 1.828125 43.175781 2.09375 44.375 C 2.359375 45.585938 3.121094 46.746094 4.1875 47.8125 C 5.25 48.871094 6.351563 49.632813 7.5625 49.90625 C 8.773438 50.179688 10.089844 49.847656 11.03125 48.90625 C 11.863281 48.074219 12.894531 46.746094 14.09375 45.21875 C 15.292969 43.691406 16.664063 41.992188 18.0625 40.59375 C 18.335938 40.320313 19.234375 40.066406 20.21875 40.0625 C 21.125 40.058594 21.941406 40.171875 22.375 40.25 C 22.386719 40.253906 22.425781 40.277344 22.4375 40.28125 C 24.542969 41.109375 26.761719 41.476563 28.96875 41.53125 C 29.03125 41.53125 29.09375 41.5625 29.15625 41.5625 C 29.1875 41.5625 29.21875 41.5625 29.25 41.5625 C 29.296875 41.558594 29.328125 41.535156 29.375 41.53125 C 36.128906 41.125 40.234375 38.738281 42.96875 36 C 46.640625 32.328125 49.28125 27.566406 49.875 22.5 C 50.46875 17.433594 48.953125 12.074219 44.4375 7.5625 C 41.054688 4.179688 37.199219 2.484375 33.34375 2.09375 C 32.703125 2.027344 32.046875 1.996094 31.40625 2 Z M 31.40625 4 C 31.972656 3.988281 32.558594 4.007813 33.125 4.0625 C 36.53125 4.394531 39.910156 5.878906 43 8.96875 C 47.121094 13.089844 48.402344 17.726563 47.875 22.25 C 47.347656 26.773438 44.957031 31.199219 41.5625 34.59375 C 39.15625 37 35.683594 39.066406 29.5625 39.5 L 12.5 22.4375 C 13.117188 15.535156 14.910156 12.902344 17.375 10.4375 C 20.769531 7.046875 25.191406 4.652344 29.71875 4.125 C 30.285156 4.058594 30.839844 4.011719 31.40625 4 Z M 12.71875 25.53125 L 26.5 39.28125 C 25.355469 39.089844 24.210938 38.808594 23.125 38.375 C 23.0625 38.359375 23 38.347656 22.9375 38.34375 C 22.488281 38.257813 21.417969 38.058594 20.21875 38.0625 C 19.019531 38.066406 17.617188 38.195313 16.625 39.1875 C 15.121094 40.691406 13.714844 42.425781 12.5 43.96875 C 11.285156 45.511719 10.246094 46.878906 9.625 47.5 C 9.117188 48.007813 8.699219 48.089844 8.03125 47.9375 C 7.363281 47.785156 6.480469 47.289063 5.59375 46.40625 C 4.714844 45.527344 4.210938 44.644531 4.0625 43.96875 C 3.914063 43.292969 4.019531 42.824219 4.5 42.34375 C 5.09375 41.75 6.449219 40.71875 8 39.5 C 9.550781 38.28125 11.304688 36.847656 12.8125 35.34375 C 13.863281 34.292969 13.925781 32.816406 13.90625 31.5625 C 13.886719 30.308594 13.683594 29.199219 13.625 28.90625 C 13.609375 28.851563 13.585938 28.800781 13.5625 28.75 C 13.15625 27.714844 12.902344 26.625 12.71875 25.53125 Z " fill="#9a9a9a"/></g></svg>
