<?xml version="1.0" encoding="UTF-8"?>
<svg xmlns="http://www.w3.org/2000/svg" xmlns:xlink="http://www.w3.org/1999/xlink" viewBox="0 0 50 50" version="1.1" fill="#9a9a9a"><g id="surface1" fill="#9a9a9a"><path style=" " d="M 12 2 C 8.699219 2 6 4.699219 6 8 L 6 42.417969 C 6 45.59375 8.832031 48 12 48 L 44 48 L 44 46 L 12 46 C 9.839844 46 8 44.378906 8 42.417969 C 8 40.457031 9.800781 39 12 39 L 44 39 L 44 2 Z M 12 4 L 42 4 L 42 37 L 12 37 C 10.507813 37 9.09375 37.539063 8 38.417969 L 8 8 C 8 5.78125 9.78125 4 12 4 Z M 25 11 C 25 11 24.367188 11.960938 23.8125 13.148438 C 23.3125 13.011719 22.722656 12.96875 22.078125 13.089844 C 21.339844 13.226563 20.535156 13.578125 19.742188 14.226563 C 18.769531 15.023438 17.019531 15 17.019531 15 L 17.015625 15.050781 L 17 15.015625 L 12 25.015625 L 12 25.25 C 12 27.898438 14.285156 30 17 30 C 19.714844 30 22 27.898438 22 25.25 L 22 25.015625 L 17.96875 16.957031 C 18.8125 16.871094 19.976563 16.617188 21.007813 15.773438 C 21.996094 14.964844 22.632813 14.921875 23.132813 15.035156 C 23.054688 15.371094 23 15.699219 23 16 C 23 17.105469 23.894531 18 25 18 C 26.105469 18 27 17.105469 27 16 C 27 15.699219 26.945313 15.371094 26.867188 15.035156 C 27.367188 14.921875 28.003906 14.964844 28.992188 15.773438 C 30.023438 16.617188 31.1875 16.871094 32.03125 16.957031 L 28 25.015625 L 28 25.25 C 28 27.898438 30.285156 30 33 30 C 35.714844 30 38 27.898438 38 25.25 L 38 25.015625 L 33 15.015625 L 32.984375 15.050781 L 32.980469 15 C 32.980469 15 31.230469 15.023438 30.257813 14.226563 C 29.464844 13.578125 28.660156 13.226563 27.921875 13.089844 C 27.277344 12.96875 26.6875 13.011719 26.1875 13.148438 C 25.632813 11.960938 25 11 25 11 Z M 17 19.484375 L 19.257813 24 L 14.742188 24 Z M 33 19.484375 L 35.257813 24 L 30.742188 24 Z M 14.171875 26 L 19.828125 26 C 19.480469 27.136719 18.398438 28 17 28 C 15.601563 28 14.519531 27.136719 14.171875 26 Z M 30.171875 26 L 35.828125 26 C 35.480469 27.136719 34.398438 28 33 28 C 31.601563 28 30.519531 27.136719 30.171875 26 Z " fill="#9a9a9a"/></g></svg>
