<?xml version="1.0" encoding="UTF-8"?>
<svg xmlns="http://www.w3.org/2000/svg" xmlns:xlink="http://www.w3.org/1999/xlink" viewBox="0 0 50 50" version="1.1" fill="#9a9a9a"><g id="surface1" fill="#9a9a9a"><path style=" " d="M 28.625 2 C 28.285156 2.003906 27.941406 2.019531 27.59375 2.0625 C 26.902344 2.152344 26.144531 2.386719 25.5625 2.96875 L 2.84375 25.6875 C 1.722656 26.808594 1.722656 28.660156 2.84375 29.78125 L 20.21875 47.15625 C 21.339844 48.277344 23.191406 48.277344 24.3125 47.15625 L 47.03125 24.4375 C 47.609375 23.859375 47.847656 23.09375 47.9375 22.40625 C 48.027344 21.71875 48 21.039063 48 20.375 L 48 5.5 C 48 3.578125 46.421875 2 44.5 2 L 29.625 2 C 29.300781 2 28.964844 1.996094 28.625 2 Z M 28.65625 4 C 28.949219 3.992188 29.285156 4 29.625 4 L 44.5 4 C 45.339844 4 46 4.660156 46 5.5 L 46 20.375 C 46 21.070313 45.996094 21.699219 45.9375 22.15625 C 45.878906 22.613281 45.785156 22.839844 45.625 23 L 22.90625 45.75 C 22.550781 46.105469 21.980469 46.105469 21.625 45.75 L 21.5 45.59375 L 4.25 28.375 C 3.894531 28.019531 3.894531 27.449219 4.25 27.09375 L 27 4.375 C 27.15625 4.21875 27.414063 4.121094 27.875 4.0625 C 28.105469 4.03125 28.363281 4.007813 28.65625 4 Z M 39 7 C 36.800781 7 35 8.800781 35 11 C 35 13.199219 36.800781 15 39 15 C 41.199219 15 43 13.199219 43 11 C 43 8.800781 41.199219 7 39 7 Z M 39 9 C 40.117188 9 41 9.882813 41 11 C 41 12.117188 40.117188 13 39 13 C 37.882813 13 37 12.117188 37 11 C 37 9.882813 37.882813 9 39 9 Z M 27.6875 18.53125 C 26.171875 18.574219 24.609375 19.132813 23 20.21875 L 22.09375 19.3125 L 20.65625 19.90625 L 21.875 21.09375 C 21.785156 21.160156 21.683594 21.222656 21.59375 21.3125 L 21.3125 21.59375 C 21.257813 21.648438 21.210938 21.726563 21.15625 21.78125 C 21.101563 21.835938 21.042969 21.871094 21 21.9375 L 20.25 21.1875 L 18.8125 21.75 L 20.0625 23.03125 C 17.332031 26.679688 17.316406 29.84375 20 32.53125 C 20.953125 33.484375 22.046875 34.082031 23.25 34.34375 L 24.96875 32.625 C 24.082031 32.589844 23.417969 32.488281 22.96875 32.34375 C 22.355469 32.148438 21.773438 31.804688 21.25 31.28125 C 19.527344 29.558594 19.660156 27.34375 21.65625 24.625 L 25.25 28.1875 L 26.6875 27.625 L 22.59375 23.53125 C 22.636719 23.464844 22.695313 23.398438 22.75 23.34375 C 22.804688 23.289063 22.839844 23.222656 22.90625 23.15625 C 22.984375 23.082031 23.066406 22.996094 23.15625 22.90625 C 23.242188 22.816406 23.339844 22.765625 23.4375 22.6875 L 27.78125 27 L 29.21875 26.4375 L 24.5625 21.78125 C 25.660156 21.058594 26.699219 20.632813 27.6875 20.5 C 28.925781 20.335938 29.960938 20.679688 30.78125 21.5 C 31.582031 22.300781 31.988281 23.445313 32 24.96875 L 34.125 24.375 C 33.828125 22.695313 33.183594 21.339844 32.1875 20.34375 C 30.894531 19.050781 29.398438 18.464844 27.6875 18.53125 Z " fill="#9a9a9a"/></g></svg>
