<?xml version="1.0" encoding="UTF-8"?>
<svg xmlns="http://www.w3.org/2000/svg" xmlns:xlink="http://www.w3.org/1999/xlink" viewBox="0 0 50 50" version="1.1" fill="#9a9a9a"><g id="surface1" fill="#9a9a9a"><path style=" " d="M 25 2 C 15.621094 2 8 9.621094 8 19 C 8 25.488281 11.648438 31.136719 17 34 C 16.96875 34 16.9375 34 16.90625 34 C 16.875 34 16.84375 34 16.8125 34 C 16.335938 34.089844 15.992188 34.511719 16 35 L 16 37 C 16.003906 37.425781 16.28125 37.804688 16.6875 37.9375 C 19.867188 38.996094 22 41.960938 22 45.3125 L 22 46 L 9.5 46 C 9.46875 46 9.4375 46 9.40625 46 C 9.375 46 9.34375 46 9.3125 46 C 8.761719 46.050781 8.355469 46.542969 8.40625 47.09375 C 8.457031 47.644531 8.949219 48.050781 9.5 48 L 40.5 48 C 40.859375 48.003906 41.195313 47.816406 41.378906 47.503906 C 41.558594 47.191406 41.558594 46.808594 41.378906 46.496094 C 41.195313 46.183594 40.859375 45.996094 40.5 46 L 28 46 L 28 45.3125 C 28 41.960938 30.132813 38.996094 33.3125 37.9375 C 33.71875 37.804688 33.996094 37.425781 34 37 L 34 35 C 34 34.449219 33.550781 34 33 34 C 38.351563 31.136719 42 25.488281 42 19 C 42 9.621094 34.378906 2 25 2 Z M 25 4 C 33.296875 4 40 10.703125 40 19 C 40 27.296875 33.296875 34 25 34 C 16.703125 34 10 27.296875 10 19 C 10 10.703125 16.703125 4 25 4 Z M 35 19 C 34.449219 19 34 19.449219 34 20 C 34 20.550781 34.449219 21 35 21 C 35.550781 21 36 20.550781 36 20 C 36 19.449219 35.550781 19 35 19 Z M 32 22 C 31.449219 22 31 22.449219 31 23 C 31 23.550781 31.449219 24 32 24 C 32.550781 24 33 23.550781 33 23 C 33 22.449219 32.550781 22 32 22 Z M 36 23 C 35.449219 23 35 23.449219 35 24 C 35 24.550781 35.449219 25 36 25 C 36.550781 25 37 24.550781 37 24 C 37 23.449219 36.550781 23 36 23 Z M 29 25 C 28.449219 25 28 25.449219 28 26 C 28 26.550781 28.449219 27 29 27 C 29.550781 27 30 26.550781 30 26 C 30 25.449219 29.550781 25 29 25 Z M 33 26 C 32.449219 26 32 26.449219 32 27 C 32 27.550781 32.449219 28 33 28 C 33.550781 28 34 27.550781 34 27 C 34 26.449219 33.550781 26 33 26 Z M 26 28 C 25.449219 28 25 28.449219 25 29 C 25 29.550781 25.449219 30 26 30 C 26.550781 30 27 29.550781 27 29 C 27 28.449219 26.550781 28 26 28 Z M 30 29 C 29.449219 29 29 29.449219 29 30 C 29 30.550781 29.449219 31 30 31 C 30.550781 31 31 30.550781 31 30 C 31 29.449219 30.550781 29 30 29 Z M 18 36 L 32 36 L 32 36.40625 C 28.417969 37.929688 26 41.371094 26 45.3125 L 26 46 L 24 46 L 24 45.3125 C 24 41.371094 21.582031 37.929688 18 36.40625 Z " fill="#9a9a9a"/></g></svg>
