<?xml version="1.0" encoding="UTF-8"?>
<svg xmlns="http://www.w3.org/2000/svg" xmlns:xlink="http://www.w3.org/1999/xlink" viewBox="0 0 50 50" version="1.1" fill="#9a9a9a"><g id="surface1" fill="#9a9a9a"><path style=" " d="M 25 1 C 15.691406 1 8.015625 8.089844 7.09375 17.15625 C 6.179688 17.453125 5.453125 18.179688 5.15625 19.09375 C 3.730469 19.378906 2.492188 20.355469 1.625 21.65625 C 0.589844 23.207031 0 25.25 0 27.5 C 0 29.75 0.589844 31.792969 1.625 33.34375 C 2.492188 34.644531 3.730469 35.621094 5.15625 35.90625 C 5.546875 37.109375 6.671875 38 8 38 C 9.644531 38 11 36.644531 11 35 L 11 20 C 11 18.757813 10.214844 17.703125 9.125 17.25 C 10 9.234375 16.75 3 25 3 C 33.25 3 40 9.234375 40.875 17.25 C 39.785156 17.703125 39 18.757813 39 20 L 39 35 C 39 36.644531 40.355469 38 42 38 C 43.328125 38 44.453125 37.109375 44.84375 35.90625 C 46.269531 35.621094 47.507813 34.644531 48.375 33.34375 C 49.410156 31.792969 50 29.75 50 27.5 C 50 25.25 49.410156 23.207031 48.375 21.65625 C 47.507813 20.355469 46.269531 19.378906 44.84375 19.09375 C 44.546875 18.179688 43.820313 17.453125 42.90625 17.15625 C 41.984375 8.089844 34.308594 1 25 1 Z M 8 19 C 8.5625 19 9 19.4375 9 20 L 9 35 C 9 35.5625 8.5625 36 8 36 C 7.4375 36 7 35.5625 7 35 L 7 20 C 7 19.4375 7.4375 19 8 19 Z M 42 19 C 42.5625 19 43 19.4375 43 20 L 43 35 C 43 35.5625 42.5625 36 42 36 C 41.4375 36 41 35.5625 41 35 L 41 20 C 41 19.4375 41.4375 19 42 19 Z M 5 21.21875 L 5 33.78125 C 4.378906 33.515625 3.789063 33.011719 3.28125 32.25 C 2.507813 31.089844 2 29.390625 2 27.5 C 2 25.609375 2.507813 23.910156 3.28125 22.75 C 3.789063 21.988281 4.378906 21.484375 5 21.21875 Z M 45 21.21875 C 45.621094 21.484375 46.210938 21.988281 46.71875 22.75 C 47.492188 23.910156 48 25.609375 48 27.5 C 48 29.390625 47.492188 31.089844 46.71875 32.25 C 46.210938 33.011719 45.621094 33.515625 45 33.78125 Z " fill="#9a9a9a"/></g></svg>
