<?xml version="1.0" encoding="UTF-8"?>
<svg xmlns="http://www.w3.org/2000/svg" xmlns:xlink="http://www.w3.org/1999/xlink" viewBox="0 0 50 50" version="1.1" fill="#9a9a9a"><g id="surface1" fill="#9a9a9a"><path style=" " d="M 25.6875 8 C 23.796875 8 22.289063 9.078125 21.28125 10.5625 C 20.480469 10.128906 19.59375 9.8125 18.59375 9.8125 C 16.296875 9.8125 14.273438 11.15625 13.375 13.15625 C 10.796875 13.664063 8.621094 14.339844 7 15.21875 C 5.589844 15.984375 4.488281 16.925781 4.125 18.125 C 4.035156 18.234375 3.972656 18.363281 3.9375 18.5 L 0.0625 30.59375 C 0.0234375 30.695313 0.00390625 30.800781 0 30.90625 C 0 34.601563 2.964844 37.644531 7.4375 39.71875 C 11.910156 41.792969 18.035156 43 25 43 C 31.964844 43 38.089844 41.792969 42.5625 39.71875 C 47.035156 37.644531 50 34.601563 50 30.90625 C 50.007813 30.800781 49.996094 30.695313 49.96875 30.59375 L 46.15625 18.59375 C 46.101563 18.382813 45.980469 18.199219 45.8125 18.0625 C 45.652344 17.613281 45.414063 17.175781 45.09375 16.8125 C 44.554688 16.203125 43.863281 15.714844 43 15.25 C 41.382813 14.382813 39.199219 13.703125 36.625 13.15625 C 35.726563 11.15625 33.703125 9.8125 31.40625 9.8125 C 30.902344 9.8125 30.402344 9.945313 29.90625 10.0625 C 28.902344 8.894531 27.46875 8 25.6875 8 Z M 25.6875 10 C 27.035156 10 28.152344 10.710938 28.78125 11.65625 C 29.023438 12.027344 29.484375 12.191406 29.90625 12.0625 C 30.410156 11.894531 30.917969 11.8125 31.40625 11.8125 C 32.871094 11.8125 34.128906 12.621094 34.75 13.8125 C 34.695313 14.167969 34.839844 14.527344 35.125 14.75 C 35.125 14.757813 35.125 14.769531 35.125 14.78125 C 35.175781 15.109375 35.386719 15.390625 35.6875 15.53125 C 37.09375 16.140625 38.210938 16.867188 38.9375 17.625 C 39.664063 18.382813 40 19.128906 40 19.8125 C 39.996094 20.171875 40.183594 20.507813 40.496094 20.691406 C 40.808594 20.871094 41.191406 20.871094 41.503906 20.691406 C 41.816406 20.507813 42.003906 20.171875 42 19.8125 C 42 18.515625 41.382813 17.320313 40.4375 16.3125 C 41.027344 16.539063 41.578125 16.757813 42.03125 17 C 42.753906 17.386719 43.285156 17.804688 43.59375 18.15625 C 43.902344 18.507813 44 18.761719 44 19 C 44 19.371094 43.71875 19.882813 42.84375 20.5 C 41.96875 21.117188 40.589844 21.757813 38.84375 22.28125 C 35.351563 23.328125 30.417969 24 25 24 C 19.582031 24 14.648438 23.328125 11.15625 22.28125 C 9.410156 21.757813 8.03125 21.117188 7.15625 20.5 C 6.28125 19.882813 6 19.371094 6 19 C 6 18.519531 6.527344 17.753906 7.96875 16.96875 C 8.417969 16.722656 8.972656 16.511719 9.5625 16.28125 C 8.613281 17.28125 8 18.484375 8 19.8125 C 7.996094 20.171875 8.183594 20.507813 8.496094 20.691406 C 8.808594 20.871094 9.191406 20.871094 9.503906 20.691406 C 9.816406 20.507813 10.003906 20.171875 10 19.8125 C 10 19.0625 10.308594 18.335938 11.03125 17.59375 C 11.753906 16.851563 12.894531 16.144531 14.3125 15.53125 C 14.613281 15.390625 14.824219 15.109375 14.875 14.78125 C 15.183594 13.074219 16.757813 11.8125 18.59375 11.8125 C 19.453125 11.8125 20.253906 12.105469 20.90625 12.59375 C 21.152344 12.78125 21.472656 12.847656 21.773438 12.765625 C 22.070313 12.6875 22.316406 12.472656 22.4375 12.1875 C 22.992188 10.84375 24.171875 10 25.6875 10 Z M 18.8125 16 C 18.484375 16.058594 18.207031 16.28125 18.074219 16.589844 C 17.941406 16.898438 17.972656 17.25 18.15625 17.53125 C 18.15625 17.53125 18.625 18.25 19.5625 18.84375 C 20.5 19.4375 21.96875 20 24 20 C 24.359375 20.003906 24.695313 19.816406 24.878906 19.503906 C 25.058594 19.191406 25.058594 18.808594 24.878906 18.496094 C 24.695313 18.183594 24.359375 17.996094 24 18 C 22.332031 18 21.292969 17.5625 20.65625 17.15625 C 20.019531 16.75 19.84375 16.46875 19.84375 16.46875 C 19.628906 16.113281 19.21875 15.929688 18.8125 16 Z M 31.90625 16.96875 C 31.863281 16.976563 31.820313 16.988281 31.78125 17 C 31.316406 17.105469 30.988281 17.523438 31 18 C 31 18.53125 30.828125 18.648438 30.53125 18.8125 C 30.234375 18.976563 29.90625 19 29.90625 19 C 29.355469 19.050781 28.949219 19.542969 29 20.09375 C 29.050781 20.644531 29.542969 21.050781 30.09375 21 C 30.09375 21 30.765625 20.949219 31.46875 20.5625 C 32.171875 20.175781 33 19.269531 33 18 C 33.011719 17.710938 32.894531 17.433594 32.6875 17.238281 C 32.476563 17.039063 32.191406 16.941406 31.90625 16.96875 Z M 44.9375 21.34375 L 47.96875 31 C 47.914063 33.570313 45.769531 36.027344 41.71875 37.90625 C 37.613281 39.808594 31.734375 41 25 41 C 18.265625 41 12.386719 39.808594 8.28125 37.90625 C 4.210938 36.019531 2.035156 33.550781 2 30.96875 L 5.09375 21.40625 C 5.359375 21.675781 5.671875 21.925781 6 22.15625 C 7.15625 22.972656 8.714844 23.625 10.59375 24.1875 C 14.351563 25.316406 19.417969 26 25 26 C 30.582031 26 35.648438 25.316406 39.40625 24.1875 C 41.285156 23.625 42.84375 22.972656 44 22.15625 C 44.347656 21.910156 44.660156 21.632813 44.9375 21.34375 Z M 21 30 C 19.894531 30 19 30.894531 19 32 C 19 32.59375 19.273438 33.136719 19.6875 33.5 C 19.269531 33.867188 19 34.398438 19 35 C 19 36.105469 19.894531 37 21 37 C 22.105469 37 23 36.105469 23 35 C 23 34.636719 22.890625 34.292969 22.71875 34 L 28.28125 34 C 28.109375 34.292969 28 34.636719 28 35 C 28 36.105469 28.894531 37 30 37 C 31.105469 37 32 36.105469 32 35 C 32 34.398438 31.730469 33.867188 31.3125 33.5 C 31.730469 33.132813 32 32.601563 32 32 C 32 30.894531 31.105469 30 30 30 C 28.894531 30 28 30.894531 28 32 L 23 32 C 23 30.894531 22.105469 30 21 30 Z " fill="#9a9a9a"/></g></svg>
