<?xml version="1.0" encoding="UTF-8"?>
<svg xmlns="http://www.w3.org/2000/svg" xmlns:xlink="http://www.w3.org/1999/xlink" viewBox="0 0 50 50" version="1.1" fill="#9a9a9a"><g id="surface1" fill="#9a9a9a"><path style=" " d="M 0 7 L 0 39 L 50 39 L 50 7 Z M 2 9 L 48 9 L 48 37 L 2 37 Z M 24.96875 13.03125 C 24.164063 13.03125 24 13.4375 24 13.96875 L 24 25 C 24 26.117188 24 27 22 27 C 19.144531 27 18 28.21875 18 30 C 18 31.199219 18.246094 33 22 33 C 25.753906 33 26 30.351563 26 29 L 26 19.03125 C 26 18.339844 26.066406 18 26.46875 18 C 29.054688 18 29.445313 19.9375 33.03125 19.9375 C 33.03125 19.9375 34 19.980469 34 19.03125 L 34 15.96875 C 34 15.199219 33.640625 15.03125 33 15.03125 C 29.421875 15.03125 28.324219 13.03125 24.96875 13.03125 Z M 10.8125 41 C 10.261719 41.050781 9.855469 41.542969 9.90625 42.09375 C 9.957031 42.644531 10.449219 43.050781 11 43 L 39 43 C 39.359375 43.003906 39.695313 42.816406 39.878906 42.503906 C 40.058594 42.191406 40.058594 41.808594 39.878906 41.496094 C 39.695313 41.183594 39.359375 40.996094 39 41 L 11 41 C 10.96875 41 10.9375 41 10.90625 41 C 10.875 41 10.84375 41 10.8125 41 Z " fill="#9a9a9a"/></g></svg>
