<?xml version="1.0" encoding="UTF-8"?>
<svg xmlns="http://www.w3.org/2000/svg" xmlns:xlink="http://www.w3.org/1999/xlink" viewBox="0 0 50 50" version="1.1" fill="#9a9a9a"><g id="surface1" fill="#9a9a9a"><path style=" " d="M 18 1 C 15.621094 1 13.550781 2.246094 12.3125 4.125 C 11.347656 3.488281 10.265625 3 9 3 C 5.675781 3 3 5.675781 3 9 C 3 10.78125 3.773438 12.371094 5 13.46875 L 5 42.40625 C 5 44.425781 5.542969 46.121094 6.71875 47.28125 C 7.886719 48.433594 9.582031 48.953125 11.59375 48.90625 C 11.605469 48.90625 11.613281 48.90625 11.625 48.90625 L 30.40625 48.90625 C 32.417969 48.90625 34.105469 48.410156 35.28125 47.25 C 36.457031 46.089844 37 44.378906 37 42.3125 L 37 38 C 40.375 38 42.972656 35.820313 44.59375 32.9375 C 46.214844 30.054688 47 26.410156 47 23 C 47 19.425781 44.253906 17 41 17 C 39.417969 17 38.003906 17.335938 37 17.625 L 37 14.1875 C 38.792969 13.152344 40 11.226563 40 9 C 40 5.675781 37.324219 3 34 3 C 32.445313 3 31.078125 3.71875 30 4.71875 C 28.921875 3.71875 27.554688 3 26 3 C 25.019531 3 24.117188 3.289063 23.28125 3.71875 C 22.007813 2.140625 20.136719 1 18 1 Z M 18 3 C 19.71875 3 21.441406 4.03125 22.25 5.40625 C 22.398438 5.640625 22.636719 5.808594 22.90625 5.859375 C 23.179688 5.914063 23.460938 5.851563 23.6875 5.6875 C 24.296875 5.230469 25.082031 5 26 5 C 27.265625 5 28.480469 5.648438 29.1875 6.59375 C 29.375 6.855469 29.679688 7.011719 30 7.011719 C 30.320313 7.011719 30.625 6.855469 30.8125 6.59375 C 31.519531 5.648438 32.734375 5 34 5 C 36.277344 5 38 6.722656 38 9 C 38 11.277344 36.277344 13 34 13 C 32.734375 13 31.519531 12.351563 30.8125 11.40625 C 30.625 11.144531 30.320313 10.988281 30 10.988281 C 29.679688 10.988281 29.375 11.144531 29.1875 11.40625 C 28.746094 11.992188 27 13.4375 27 15.6875 C 27 18.464844 27.542969 20.4375 28.0625 21.90625 C 28.582031 23.375 29 24.332031 29 25 C 29 26.65625 27.65625 28 26 28 C 24.34375 28 23 26.65625 23 25 C 23 24.332031 23.417969 23.375 23.9375 21.90625 C 24.457031 20.4375 25 18.464844 25 15.6875 C 25 13.585938 23.507813 12.195313 22.90625 11.59375 C 22.527344 11.21875 21.925781 11.207031 21.53125 11.5625 C 20.570313 12.433594 19.425781 13 18 13 C 16.332031 13 14.933594 12.15625 14 10.96875 C 13.789063 10.695313 13.457031 10.546875 13.113281 10.578125 C 12.769531 10.613281 12.46875 10.816406 12.3125 11.125 C 11.695313 12.28125 10.464844 13 9 13 C 6.722656 13 5 11.277344 5 9 C 5 6.722656 6.722656 5 9 5 C 10.113281 5 11.070313 5.46875 11.9375 6.25 C 12.175781 6.46875 12.507813 6.558594 12.824219 6.488281 C 13.140625 6.421875 13.402344 6.203125 13.53125 5.90625 C 14.273438 4.175781 15.988281 3 18 3 Z M 13.25 12.90625 C 14.492188 14.09375 16.074219 15 18 15 C 19.574219 15 20.878906 14.382813 22 13.59375 C 22.503906 14.175781 23 14.871094 23 15.6875 C 23 18.066406 22.605469 19.6875 22.15625 21 L 7 21 L 7 14.65625 C 7.625 14.875 8.296875 15 9 15 C 10.714844 15 12.175781 14.136719 13.25 12.90625 Z M 30.15625 13.40625 C 31.214844 14.324219 32.515625 15 34 15 C 34.339844 15 34.675781 14.960938 35 14.90625 L 35 18.8125 C 34.972656 18.945313 34.972656 19.085938 35 19.21875 L 35 21 L 29.84375 21 C 29.394531 19.6875 29 18.066406 29 15.6875 C 29 14.851563 29.5625 14.128906 30.15625 13.40625 Z M 41 19 C 43.347656 19 45 20.375 45 23 C 45 26.089844 44.246094 29.445313 42.84375 31.9375 C 41.441406 34.429688 39.527344 36 37 36 L 37 22.1875 C 37.027344 22.054688 37.027344 21.914063 37 21.78125 L 37 19.71875 C 37.820313 19.441406 39.367188 19 41 19 Z M 7 23 L 21.40625 23 C 21.179688 23.644531 21 24.289063 21 25 C 21 27.746094 23.253906 30 26 30 C 28.746094 30 31 27.746094 31 25 C 31 24.289063 30.820313 23.644531 30.59375 23 L 35 23 L 35 36.8125 C 34.972656 36.945313 34.972656 37.085938 35 37.21875 L 35 42.3125 C 35 44.046875 34.574219 45.125 33.875 45.8125 C 33.175781 46.5 32.09375 46.90625 30.40625 46.90625 L 11.59375 46.90625 C 11.582031 46.90625 11.574219 46.90625 11.5625 46.90625 C 9.886719 46.953125 8.824219 46.5625 8.125 45.875 C 7.425781 45.1875 7 44.085938 7 42.40625 Z " fill="#9a9a9a"/></g></svg>
