<?xml version="1.0" encoding="UTF-8"?>
<svg xmlns="http://www.w3.org/2000/svg" xmlns:xlink="http://www.w3.org/1999/xlink" viewBox="0 0 50 50" version="1.1" fill="#9a9a9a"><g id="surface1" fill="#9a9a9a"><path style=" " d="M 2.96875 1 C 2.542969 1.078125 2.21875 1.417969 2.15625 1.84375 C 2.15625 1.84375 1.542969 5.480469 1.71875 9.46875 C 1.304688 13.210938 0 24.53125 0 34.75 C 0 37.929688 0.308594 40.078125 0.53125 41.25 C 0.261719 41.445313 0.0429688 41.875 0.03125 42.125 C 0.0234375 42.289063 0.0429688 42.355469 0.0625 42.4375 L 0.0625 42.625 L 0.34375 47.40625 L 0.34375 47.4375 C 0.34375 47.464844 0.324219 47.816406 0.5625 48.1875 C 0.8125 48.574219 1.40625 48.90625 2 48.90625 C 2.339844 48.90625 4.125 48.96875 4.125 48.96875 C 4.175781 48.972656 4.230469 48.972656 4.28125 48.96875 C 4.28125 48.96875 4.476563 48.945313 4.71875 48.84375 C 4.839844 48.792969 5.015625 48.730469 5.1875 48.5625 C 5.34375 48.40625 5.476563 48.097656 5.5 47.78125 C 5.5 47.898438 5.464844 47.882813 5.53125 48.09375 C 5.609375 48.335938 5.816406 48.648438 6.09375 48.8125 C 6.371094 48.976563 6.65625 49 6.90625 49 L 11.40625 49 C 11.480469 48.996094 11.554688 48.988281 11.625 48.96875 C 11.625 48.96875 11.855469 48.929688 12.125 48.78125 C 12.394531 48.632813 12.875 48.222656 12.875 47.5625 C 12.875 47.289063 12.875 46.707031 12.875 46.46875 C 12.929688 46.46875 12.949219 46.46875 13 46.46875 C 13.027344 46.835938 13.0625 47.28125 13.0625 47.28125 C 13.070313 47.378906 13.089844 47.472656 13.125 47.5625 C 13.125 47.5625 13.246094 47.832031 13.4375 48.03125 C 13.628906 48.230469 13.933594 48.449219 14.3125 48.53125 C 14.871094 48.652344 15.445313 48.640625 16.09375 48.65625 C 16.742188 48.671875 17.3125 48.65625 17.3125 48.65625 C 17.34375 48.65625 17.375 48.65625 17.40625 48.65625 C 17.40625 48.65625 17.621094 48.628906 17.875 48.5625 C 18.003906 48.527344 18.140625 48.5 18.34375 48.375 C 18.546875 48.25 18.90625 47.929688 18.90625 47.40625 C 18.90625 47.703125 18.90625 47.507813 18.9375 47.40625 C 18.96875 47.304688 19.011719 47.160156 19.0625 47 C 19.082031 46.941406 19.105469 46.871094 19.125 46.8125 C 19.765625 46.808594 20.277344 46.785156 20.5 46.78125 C 20.5 46.945313 20.5 47.1875 20.5 47.1875 C 20.496094 47.316406 20.519531 47.441406 20.5625 47.5625 C 20.5625 47.5625 20.683594 47.832031 20.875 48.03125 C 21.066406 48.230469 21.371094 48.449219 21.75 48.53125 C 22.242188 48.640625 22.761719 48.640625 23.28125 48.65625 C 23.800781 48.671875 24.25 48.65625 24.25 48.65625 C 24.269531 48.65625 24.292969 48.65625 24.3125 48.65625 C 24.3125 48.65625 24.527344 48.628906 24.78125 48.5625 C 24.910156 48.527344 25.046875 48.5 25.25 48.375 C 25.453125 48.25 25.8125 47.925781 25.8125 47.40625 C 25.8125 47.503906 25.855469 47.246094 25.875 47.0625 C 25.964844 47.0625 26.019531 47.066406 26.09375 47.0625 C 26.097656 47.082031 26.089844 47.105469 26.09375 47.125 C 26.136719 47.363281 26.15625 47.59375 26.15625 47.59375 L 26.21875 47.59375 C 26.226563 47.726563 26.210938 47.882813 26.375 48.15625 C 26.605469 48.535156 27.210938 48.882813 27.78125 48.84375 C 27.640625 48.851563 27.921875 48.835938 28.15625 48.84375 C 28.390625 48.851563 28.675781 48.859375 28.96875 48.875 C 29.550781 48.902344 30.125 48.9375 30.125 48.9375 C 30.175781 48.941406 30.230469 48.941406 30.28125 48.9375 C 30.28125 48.9375 30.621094 48.890625 30.90625 48.6875 C 31.191406 48.484375 31.464844 48.066406 31.5 47.625 C 31.515625 47.445313 31.5 47.386719 31.5 47.21875 C 31.820313 47.214844 32.074219 47.191406 32.46875 47.1875 C 32.800781 47.183594 33.125 47.1875 33.375 47.1875 C 33.453125 47.1875 33.429688 47.183594 33.5 47.1875 L 33.53125 47.78125 C 33.546875 48 33.632813 48.210938 33.78125 48.375 C 33.78125 48.375 34.003906 48.773438 34.6875 48.9375 C 34.988281 49.011719 34.988281 48.96875 35.09375 48.96875 C 35.199219 48.96875 35.3125 48.976563 35.4375 48.96875 C 35.6875 48.953125 35.964844 48.933594 36.25 48.90625 C 36.824219 48.855469 37.375 48.78125 37.375 48.78125 C 37.683594 48.75 37.960938 48.578125 38.125 48.3125 C 38.125 48.3125 38.246094 48.132813 38.34375 47.9375 C 38.390625 47.839844 38.421875 47.730469 38.46875 47.59375 C 38.492188 47.523438 38.511719 47.464844 38.53125 47.34375 C 38.53125 47.332031 38.527344 47.292969 38.53125 47.28125 C 38.53125 47.277344 38.53125 47.257813 38.53125 47.25 C 38.558594 47.171875 38.628906 47.007813 38.6875 46.875 C 38.730469 46.777344 38.742188 46.769531 38.78125 46.6875 C 39.160156 46.605469 39.527344 46.535156 39.8125 46.46875 C 39.847656 46.519531 39.871094 46.570313 39.90625 46.625 C 40.023438 46.804688 40.089844 46.914063 40.125 46.96875 C 40.136719 47.003906 40.140625 46.992188 40.15625 47.03125 C 40.226563 47.1875 40.359375 47.410156 40.625 47.5625 C 40.890625 47.714844 41.226563 47.746094 41.46875 47.6875 C 41.417969 47.699219 41.636719 47.660156 41.84375 47.625 C 42.050781 47.589844 42.308594 47.542969 42.5625 47.5 C 43.066406 47.414063 43.53125 47.3125 43.53125 47.3125 C 43.789063 47.277344 44.027344 47.144531 44.1875 46.9375 L 44.5 46.53125 C 44.613281 46.375 44.675781 46.191406 44.6875 46 L 44.8125 45.03125 C 44.929688 44.988281 45.035156 44.953125 45.15625 44.90625 C 45.316406 44.84375 45.347656 44.832031 45.46875 44.78125 L 45.75 45.21875 C 45.847656 45.378906 45.988281 45.507813 46.15625 45.59375 C 46.15625 45.59375 46.296875 45.671875 46.46875 45.71875 C 46.640625 45.765625 46.886719 45.820313 47.28125 45.6875 L 47.28125 45.71875 C 47.535156 45.636719 47.53125 45.585938 47.71875 45.5 C 47.90625 45.414063 48.148438 45.320313 48.375 45.21875 C 48.824219 45.011719 49.25 44.8125 49.25 44.8125 C 49.472656 44.710938 49.648438 44.535156 49.75 44.3125 C 49.75 44.3125 49.808594 44.160156 49.875 43.96875 C 49.90625 43.871094 49.941406 43.765625 49.96875 43.625 C 49.996094 43.484375 50.0625 43.34375 49.9375 42.96875 C 49.9375 42.957031 49.9375 42.949219 49.9375 42.9375 C 49.921875 42.863281 49.898438 42.722656 49.875 42.59375 C 49.832031 42.335938 49.773438 42.019531 49.71875 41.6875 C 49.613281 41.023438 49.53125 40.375 49.53125 40.375 C 49.488281 40.054688 49.289063 39.773438 49 39.625 C 49 39.625 48.941406 39.628906 48.9375 39.625 C 49.207031 38.179688 49.375 35.695313 47.78125 33.5 C 45.746094 30.695313 43.066406 29.800781 41.1875 29.59375 C 38.800781 29.332031 35.164063 28.261719 32.09375 26.40625 C 29.023438 24.550781 26.570313 21.972656 26.09375 18.75 C 25.410156 14.125 26.03125 12.75 26.03125 11.1875 C 26.03125 11.152344 26.035156 11.125 26.03125 11.09375 C 26.113281 10.742188 27.058594 6.394531 25.96875 2.84375 C 25.863281 2.496094 25.574219 2.230469 25.21875 2.15625 C 22.027344 1.570313 16.566406 1.300781 11.84375 1.15625 C 7.121094 1.011719 3.15625 1 3.15625 1 C 3.125 1 3.09375 1 3.0625 1 C 3.03125 1 3 1 2.96875 1 Z M 4.03125 3.03125 C 4.71875 3.035156 7.566406 3.027344 11.78125 3.15625 C 16.222656 3.292969 21.167969 3.582031 24.15625 4.0625 C 24.574219 6.027344 24.332031 8.441406 24.15625 9.78125 C 23.5 9.660156 22.660156 9.570313 21.65625 9.46875 C 19.535156 9.25 16.734375 9.058594 13.9375 8.90625 C 9.117188 8.640625 4.960938 8.507813 3.71875 8.46875 C 3.675781 5.925781 3.902344 3.925781 4.03125 3.03125 Z M 3.625 10.46875 C 4.449219 10.496094 8.71875 10.625 13.8125 10.90625 C 16.59375 11.058594 19.378906 11.257813 21.4375 11.46875 C 22.46875 11.574219 23.324219 11.671875 23.875 11.78125 C 23.925781 11.789063 23.925781 11.800781 23.96875 11.8125 C 23.855469 12.871094 23.5 14.789063 24.125 19.03125 C 24.722656 23.070313 27.695313 26.058594 31.0625 28.09375 C 34.429688 30.128906 38.222656 31.292969 40.96875 31.59375 C 42.453125 31.757813 44.480469 32.378906 46.15625 34.6875 C 47.519531 36.566406 47.089844 38.894531 46.875 39.75 C 45.238281 40.457031 41.753906 41.859375 36.5625 42.40625 C 31.015625 42.996094 27.332031 42.59375 15.28125 41.15625 C 13.5625 40.953125 10.679688 40.894531 7.9375 40.90625 C 5.554688 40.914063 3.664063 40.980469 2.53125 41 C 2.328125 40.015625 2 37.976563 2 34.75 C 2 25.070313 3.164063 14.613281 3.625 10.46875 Z M 20.34375 15.71875 C 19.679688 15.71875 19.15625 16.246094 19.15625 16.90625 C 19.15625 17.566406 19.679688 18.09375 20.34375 18.09375 C 21.007813 18.09375 21.5625 17.566406 21.5625 16.90625 C 21.5625 16.246094 21.007813 15.71875 20.34375 15.71875 Z M 21.34375 21.25 C 20.679688 21.25 20.125 21.777344 20.125 22.4375 C 20.125 23.097656 20.679688 23.625 21.34375 23.625 C 22.007813 23.625 22.53125 23.097656 22.53125 22.4375 C 22.53125 21.777344 22.007813 21.25 21.34375 21.25 Z M 24.09375 25.71875 C 23.429688 25.71875 22.875 26.246094 22.875 26.90625 C 22.875 27.566406 23.429688 28.09375 24.09375 28.09375 C 24.757813 28.09375 25.3125 27.566406 25.3125 26.90625 C 25.3125 26.246094 24.757813 25.71875 24.09375 25.71875 Z M 28.03125 29.09375 C 27.367188 29.09375 26.8125 29.621094 26.8125 30.28125 C 26.8125 30.941406 27.367188 31.5 28.03125 31.5 C 28.695313 31.5 29.21875 30.941406 29.21875 30.28125 C 29.21875 29.621094 28.695313 29.09375 28.03125 29.09375 Z M 33.40625 31.25 C 32.742188 31.25 32.1875 31.777344 32.1875 32.4375 C 32.1875 33.097656 32.742188 33.625 33.40625 33.625 C 34.070313 33.625 34.625 33.097656 34.625 32.4375 C 34.625 31.777344 34.070313 31.25 33.40625 31.25 Z M 47.6875 41.5625 C 47.71875 41.757813 47.714844 41.777344 47.75 42 C 47.804688 42.335938 47.859375 42.667969 47.90625 42.9375 C 47.925781 43.050781 47.953125 43.132813 47.96875 43.21875 C 47.808594 43.292969 47.75 43.304688 47.53125 43.40625 C 47.378906 43.476563 47.234375 43.53125 47.09375 43.59375 L 46.84375 43.21875 C 46.679688 42.953125 46.402344 42.78125 46.09375 42.75 L 45.5625 42.6875 C 45.402344 42.679688 45.238281 42.710938 45.09375 42.78125 C 45.09375 42.78125 44.765625 42.902344 44.4375 43.03125 C 44.273438 43.09375 44.121094 43.144531 44 43.1875 C 43.9375 43.207031 43.863281 43.242188 43.84375 43.25 C 43.609375 43.300781 43.394531 43.425781 43.28125 43.53125 C 43.136719 43.667969 43.078125 43.78125 43.03125 43.875 C 42.9375 44.0625 42.902344 44.164063 42.875 44.28125 C 42.820313 44.511719 42.8125 44.71875 42.8125 44.71875 L 42.75 45.4375 C 42.5625 45.46875 42.488281 45.484375 42.21875 45.53125 C 42.019531 45.566406 41.839844 45.59375 41.65625 45.625 C 41.625 45.578125 41.625 45.582031 41.59375 45.53125 C 41.519531 45.414063 41.417969 45.292969 41.34375 45.1875 C 41.269531 45.082031 41.296875 45.046875 41.09375 44.84375 C 40.746094 44.507813 40.558594 44.511719 40.40625 44.46875 C 40.253906 44.425781 40.125 44.40625 40.125 44.40625 C 39.992188 44.378906 39.851563 44.378906 39.71875 44.40625 C 39.71875 44.40625 38.289063 44.753906 38.15625 44.78125 C 37.910156 44.828125 37.679688 44.90625 37.5 45.03125 C 37.410156 45.09375 37.34375 45.175781 37.28125 45.25 C 37.21875 45.324219 37.125 45.46875 37.125 45.46875 C 37.125 45.46875 36.980469 45.78125 36.84375 46.09375 C 36.777344 46.25 36.714844 46.402344 36.65625 46.5625 C 36.628906 46.640625 36.617188 46.707031 36.59375 46.8125 C 36.589844 46.828125 36.597656 46.859375 36.59375 46.875 C 36.398438 46.894531 36.351563 46.882813 36.09375 46.90625 C 35.871094 46.925781 35.660156 46.957031 35.46875 46.96875 L 35.40625 46.375 C 35.386719 46.125 35.277344 45.890625 35.09375 45.71875 C 35.09375 45.71875 34.75 45.304688 34 45.21875 C 33.753906 45.191406 33.640625 45.1875 33.375 45.1875 C 33.109375 45.1875 32.804688 45.183594 32.46875 45.1875 C 31.800781 45.195313 31.082031 45.21875 30.84375 45.21875 C 30.496094 45.21875 30.179688 45.390625 30 45.5625 C 29.820313 45.734375 29.71875 45.898438 29.65625 46.03125 C 29.535156 46.292969 29.5 46.5 29.5 46.5 C 29.492188 46.574219 29.492188 46.644531 29.5 46.71875 C 29.5 46.71875 29.5 46.847656 29.5 46.90625 C 29.3125 46.898438 29.285156 46.886719 29.0625 46.875 C 28.765625 46.859375 28.464844 46.851563 28.21875 46.84375 C 28.148438 46.839844 28.113281 46.847656 28.0625 46.84375 C 28.058594 46.8125 28.066406 46.8125 28.0625 46.78125 C 28.023438 46.570313 28 46.226563 28 46.375 C 28 45.988281 27.785156 45.6875 27.625 45.53125 C 27.464844 45.375 27.332031 45.304688 27.21875 45.25 C 26.992188 45.136719 26.8125 45.09375 26.8125 45.09375 C 26.691406 45.058594 26.5625 45.050781 26.4375 45.0625 C 26.4375 45.0625 25.984375 45.101563 25.59375 45.0625 C 25.175781 45.019531 24.707031 45.089844 24.34375 45.4375 C 24.085938 45.683594 24.113281 45.921875 24.09375 46.125 L 24 46.09375 C 24 46.09375 23.949219 46.328125 23.90625 46.59375 C 23.902344 46.613281 23.910156 46.636719 23.90625 46.65625 C 23.738281 46.65625 23.644531 46.664063 23.34375 46.65625 C 22.976563 46.644531 22.679688 46.613281 22.46875 46.59375 C 22.46875 46.386719 22.488281 46.316406 22.46875 46.09375 C 22.421875 45.539063 21.964844 45.050781 21.625 44.90625 C 21.285156 44.761719 21 44.78125 21 44.78125 C 21 44.78125 19.855469 44.804688 18.375 44.8125 C 17.886719 44.804688 17.464844 45.148438 17.375 45.625 C 17.359375 45.703125 17.261719 46.054688 17.15625 46.375 C 17.125 46.472656 17.089844 46.5625 17.0625 46.65625 C 16.894531 46.65625 16.617188 46.667969 16.125 46.65625 C 15.640625 46.644531 15.257813 46.609375 15.03125 46.59375 C 15.011719 46.285156 14.988281 46.027344 14.96875 45.78125 C 14.9375 45.421875 14.71875 45.039063 14.46875 44.84375 C 14.21875 44.648438 13.976563 44.574219 13.78125 44.53125 C 13.386719 44.445313 13.050781 44.46875 12.84375 44.46875 C 12.386719 44.46875 11.9375 44.472656 11.46875 44.84375 C 11 45.214844 10.875 45.828125 10.875 46.25 C 10.875 46.25 10.871094 46.660156 10.875 47 C 10.242188 47 8.433594 47 7.46875 47 C 7.457031 46.519531 7.4375 45.84375 7.4375 45.84375 C 7.429688 45.8125 7.417969 45.78125 7.40625 45.75 C 7.40625 45.75 7.332031 45.285156 7.03125 44.9375 C 6.730469 44.589844 6.183594 44.292969 5.53125 44.25 C 4.859375 44.207031 4.230469 44.429688 3.875 44.84375 C 3.542969 45.226563 3.5625 45.683594 3.5625 45.75 L 3.53125 45.75 L 3.53125 45.8125 C 3.53125 45.875 3.53125 46.417969 3.53125 46.9375 C 3.113281 46.921875 2.753906 46.914063 2.3125 46.90625 L 2.09375 43 C 3.164063 42.988281 5.382813 42.917969 7.9375 42.90625 C 10.65625 42.894531 13.566406 42.949219 15.03125 43.125 C 27.085938 44.5625 31.042969 44.984375 36.78125 44.375 C 42.347656 43.785156 46.046875 42.273438 47.6875 41.5625 Z " fill="#9a9a9a"/></g></svg>
