<?xml version="1.0" encoding="UTF-8" standalone="no"?>
<svg
   xmlns:dc="http://purl.org/dc/elements/1.1/"
   xmlns:cc="http://creativecommons.org/ns#"
   xmlns:rdf="http://www.w3.org/1999/02/22-rdf-syntax-ns#"
   xmlns:svg="http://www.w3.org/2000/svg"
   xmlns="http://www.w3.org/2000/svg"
   xmlns:sodipodi="http://sodipodi.sourceforge.net/DTD/sodipodi-0.dtd"
   xmlns:inkscape="http://www.inkscape.org/namespaces/inkscape"
   viewBox="0 0 50 50"
   version="1.1"
   fill="#000000"
   id="svg2"
   inkscape:version="0.91 r13725"
   sodipodi:docname="icons8-money_box_filled.svg">
  <metadata
     id="metadata11">
    <rdf:RDF>
      <cc:Work
         rdf:about="">
        <dc:format>image/svg+xml</dc:format>
        <dc:type
           rdf:resource="http://purl.org/dc/dcmitype/StillImage" />
      </cc:Work>
    </rdf:RDF>
  </metadata>
  <defs
     id="defs9" />
  <sodipodi:namedview
     pagecolor="#ffffff"
     bordercolor="#666666"
     borderopacity="1"
     objecttolerance="10"
     gridtolerance="10"
     guidetolerance="10"
     inkscape:pageopacity="0"
     inkscape:pageshadow="2"
     inkscape:window-width="964"
     inkscape:window-height="688"
     id="namedview7"
     showgrid="false"
     inkscape:zoom="4.72"
     inkscape:cx="32.097457"
     inkscape:cy="25"
     inkscape:window-x="0"
     inkscape:window-y="0"
     inkscape:window-maximized="0"
     inkscape:current-layer="svg2" />
  <g
     id="surface1"
     transform="matrix(0.76086957,0,0,0.76086957,5.9782608,6.48947)"
     style="fill:#000000">
    <path
       style="fill:#000000"
       d="m 18.5,2.5625 c -4.136719,0 -7.5,3.363281 -7.5,7.5 0,1.128906 0.261719,2.210938 0.75,3.21875 3.664063,-2.222656 7.773438,-3.34375 12.5,-3.34375 0.589844,0 1.164063,0.058594 1.75,0.09375 C 25.976563,5.914063 22.621094,2.5625 18.5,2.5625 Z M 37.28125,6.96875 C 37.191406,6.964844 37.089844,6.976563 37,7 33.597656,7.855469 31.175781,9.644531 29.65625,12.5 27.898438,12.128906 26.101563,11.9375 24.25,11.9375 c -5.265625,0 -9.710937,1.472656 -13.5625,4.46875 C 8.855469,17.832031 7.5,19.742188 6.65625,22 5.863281,21.722656 4,20.871094 4,18.78125 4,17.699219 4.503906,16.800781 5.34375,16.4375 5.851563,16.21875 6.09375,15.632813 5.875,15.125 5.65625,14.617188 5.066406,14.375 4.5625,14.59375 3.003906,15.265625 2,16.917969 2,18.78125 c 0,3.042969 2.445313,4.613281 4.09375,5.15625 -0.34375,1.503906 -0.507812,3.121094 -0.4375,4.84375 0.195313,4.628906 3.523438,7.960938 5.5625,9.59375 0.28125,0.214844 0.273438,0.207031 0.1875,0.46875 -0.308594,0.941406 -0.859375,2.300781 -0.875,2.34375 -0.257812,0.679688 -0.234375,1.429688 0.0625,2.09375 0.296875,0.664063 0.820313,1.148438 1.5,1.40625 l 3.21875,1.21875 c 1.363281,0.519531 3.015625,-0.210937 3.53125,-1.5625 0,0 0.402344,-1.101562 0.75,-2.03125 0.03516,-0.09375 0.07031,-0.167969 0.09375,-0.21875 0.140625,0.01953 0.355469,0.05078 0.5625,0.09375 0.808594,0.167969 2.03125,0.4375 4,0.4375 1.769531,0 2.953125,-0.132812 3.75,-0.21875 0.371094,-0.03906 0.652344,-0.09375 0.875,-0.09375 0.01563,0.03125 0.04297,0.07422 0.0625,0.125 0.320313,0.964844 0.714844,1.90625 0.71875,1.90625 0.394531,1.050781 1.40625,1.75 2.53125,1.75 0.332031,0 0.660156,-0.07031 0.96875,-0.1875 L 36.375,44.6875 c 0.679688,-0.257812 1.203125,-0.742187 1.5,-1.40625 0.296875,-0.664062 0.320313,-1.421875 0.0625,-2.09375 l -0.5,-1.34375 c -0.01953,-0.05078 -0.03516,-0.07813 -0.0625,-0.125 0,0 0.01953,-0.06641 0.1875,-0.15625 2.363281,-1.285156 4.265625,-3.300781 5.46875,-5.8125 0.222656,-0.46875 0.316406,-0.59375 0.71875,-0.59375 l 1.625,0 c 1.445313,0 2.625,-1.179687 2.625,-2.625 l 0,-4.875 c 0,-1.449219 -1.179687,-2.625 -2.625,-2.625 l -1.625,0 c -0.171875,0 -0.28125,-0.03906 -0.34375,-0.0625 C 43.125,21.359375 41.863281,16.722656 36.625,14.5625 36.68359,12.628906 37.175781,11.050781 38.1875,8.3125 38.316406,7.964844 38.246094,7.558594 38,7.28125 37.8125,7.074219 37.550781,6.976563 37.28125,6.96875 Z m -0.8125,16.125 c 1.054688,0 1.90625,0.851563 1.90625,1.90625 0,1.054688 -0.851562,1.9375 -1.90625,1.9375 -1.058594,0 -1.90625,-0.878906 -1.90625,-1.9375 0,-1.054687 0.847656,-1.90625 1.90625,-1.90625 z"
       id="path5"
       inkscape:connector-curvature="0" />
  </g>
</svg>
