<?xml version="1.0" encoding="utf-8"?>
<svg xmlns="http://www.w3.org/2000/svg" viewBox="0 0 50 50" fill="#9a9a9a"><path style="line-height:normal;text-indent:0;text-align:start;text-decoration-line:none;text-decoration-style:solid;text-decoration-color:#000;text-transform:none;block-progression:tb;isolation:auto;mix-blend-mode:normal" d="M 15 5 C 8.8182113 5 4.5566406 7.1035156 4.5566406 7.1035156 A 1.0001 1.0001 0 0 0 4 8 L 4 11 L 3 11 C 1.3550302 11 0 12.35503 0 14 L 0 40 C 0 41.64497 1.3550302 43 3 43 L 22.779297 43 C 23.328373 43.609333 24.115084 44 25 44 C 25.884916 44 26.671627 43.609333 27.220703 43 L 47 43 C 48.64497 43 50 41.64497 50 40 L 50 14 C 50 12.35503 48.64497 11 47 11 L 46 11 L 46 8 A 1.0001 1.0001 0 0 0 45.443359 7.1035156 C 45.443359 7.1035156 41.181789 5 35 5 C 29.718051 5 26.017672 6.4650278 25 6.9121094 C 23.982328 6.4650278 20.281949 5 15 5 z M 15 7 C 20.12707 7 23.295435 8.3742866 24 8.6953125 L 24 37.578125 C 22.51841 36.98568 19.663029 36 15 36 C 10.336971 36 7.4815897 36.98568 6 37.578125 L 6 12.167969 A 1.0001 1.0001 0 0 0 6 11.841797 L 6 8.6953125 C 6.7045646 8.3742866 9.87293 7 15 7 z M 35 7 C 40.12707 7 43.295435 8.3742866 44 8.6953125 L 44 11.832031 A 1.0001 1.0001 0 0 0 44 12.158203 L 44 37.578125 C 42.51841 36.98568 39.663029 36 35 36 C 30.336971 36 27.48159 36.98568 26 37.578125 L 26 8.6953125 C 26.704565 8.3742866 29.87293 7 35 7 z M 34 11 L 34 13.085938 C 32.285589 13.362889 31.169784 14.321403 30.628906 15.279297 C 29.988564 16.413342 30 17.542969 30 17.542969 C 30 18.964265 30.714063 20.097044 31.619141 20.833984 C 32.524219 21.570925 33.597025 22.024695 34.595703 22.466797 C 35.594381 22.908899 36.516793 23.339719 37.111328 23.832031 C 37.705863 24.324343 38 24.77018 38 25.625 C 38 25.625 37.9916 26.210521 37.640625 26.802734 C 37.289684 27.394947 36.71875 28 35 28 C 33.333333 28 32.775274 27.31422 32.394531 26.552734 C 32.013788 25.791248 32 25 32 25 L 30 25 C 30 25 29.98621 26.208752 30.605469 27.447266 C 31.130176 28.496681 32.252207 29.59171 34 29.904297 L 34 32 L 36 32 L 36 29.917969 C 37.701972 29.654727 38.81166 28.746534 39.359375 27.822266 C 40.008434 26.726979 40 25.625 40 25.625 C 40 24.18832 39.294137 23.040797 38.388672 22.291016 C 37.483207 21.541234 36.405619 21.081945 35.404297 20.638672 C 34.402975 20.195399 33.475781 19.767606 32.880859 19.283203 C 32.285937 18.7988 32 18.371672 32 17.542969 C 32 17.542969 32.01144 16.898673 32.371094 16.261719 C 32.730752 15.624764 33.295167 15 35 15 C 36.666667 15 37.224726 15.68578 37.605469 16.447266 C 37.986212 17.208752 38 18 38 18 L 40 18 C 40 18 40.01379 16.791248 39.394531 15.552734 C 38.869824 14.503319 37.747793 13.40829 36 13.095703 L 36 11 L 34 11 z M 3 13 L 4 13 L 4 39 A 1.0001 1.0001 0 0 0 5.4472656 39.894531 C 5.4472656 39.894531 9.2242963 38 15 38 C 20.775704 38 24.552734 39.894531 24.552734 39.894531 A 1.0001 1.0001 0 0 0 24.638672 39.931641 A 1.0001 1.0001 0 0 0 24.716797 39.957031 A 1.0001 1.0001 0 0 0 24.740234 39.964844 A 1.0001 1.0001 0 0 0 24.929688 39.998047 A 1.0001 1.0001 0 0 0 25.03125 40 A 1.0001 1.0001 0 0 0 25.037109 40 A 1.0001 1.0001 0 0 0 25.136719 39.990234 A 1.0001 1.0001 0 0 0 25.226562 39.974609 A 1.0001 1.0001 0 0 0 25.234375 39.972656 A 1.0001 1.0001 0 0 0 25.244141 39.970703 A 1.0001 1.0001 0 0 0 25.447266 39.894531 C 25.447266 39.894531 29.224296 38 35 38 C 40.775704 38 44.552734 39.894531 44.552734 39.894531 A 1.0001 1.0001 0 0 0 46 39 L 46 13 L 47 13 C 47.56503 13 48 13.43497 48 14 L 48 40 C 48 40.56503 47.56503 41 47 41 L 3 41 C 2.4349698 41 2 40.56503 2 40 L 2 14 C 2 13.43497 2.4349698 13 3 13 z" font-weight="400" font-family="sans-serif" white-space="normal" overflow="visible" fill="#9a9a9a"/></svg>
