<?xml version="1.0" encoding="UTF-8"?>
<svg xmlns="http://www.w3.org/2000/svg" xmlns:xlink="http://www.w3.org/1999/xlink" viewBox="0 0 50 50" version="1.1" fill="#9a9a9a"><g id="surface1" fill="#9a9a9a"><path style=" " d="M 28.625 2 C 28.289063 2.003906 27.941406 2.015625 27.59375 2.0625 C 26.90625 2.152344 26.15625 2.378906 25.59375 3 C 25.582031 3.011719 25.574219 3.019531 25.5625 3.03125 L 2.90625 25.6875 C 1.800781 26.792969 1.816406 28.578125 2.84375 29.75 L 2.90625 29.8125 L 20.28125 47.21875 C 21.386719 48.324219 23.171875 48.277344 24.34375 47.25 L 24.375 47.21875 L 24.40625 47.21875 L 47.09375 24.5 C 48.230469 23.363281 48.09375 21.800781 48.09375 20.5 L 48.09375 20.34375 C 48.09375 20.34375 48.101563 20.351563 48.09375 20.3125 C 48.09375 20.308594 48.09375 20.289063 48.09375 20.28125 C 48.09375 20.242188 48.097656 20.152344 48.09375 20.09375 C 48.089844 20.007813 48.066406 19.933594 48.0625 19.8125 C 48.054688 19.410156 48.039063 18.820313 48.03125 18.125 C 48.015625 16.734375 48.007813 14.886719 48 13.03125 C 47.988281 9.320313 48 5.601563 48 5.5 C 48 3.578125 46.421875 2 44.5 2 L 29.59375 2 C 29.28125 2 28.960938 1.996094 28.625 2 Z M 28.625 4 C 28.921875 4 29.257813 4 29.59375 4 L 44.5 4 C 45.375 4 46 4.625 46 5.5 C 46 5.601563 45.988281 9.316406 46 13.03125 C 46.007813 14.886719 46.015625 16.757813 46.03125 18.15625 C 46.039063 18.855469 46.050781 19.421875 46.0625 19.84375 C 46.066406 20.054688 46.085938 20.246094 46.09375 20.375 C 46.097656 20.425781 46.089844 20.453125 46.09375 20.5 C 46.09375 20.511719 46.09375 20.519531 46.09375 20.53125 C 46.089844 21.808594 45.945313 22.835938 45.6875 23.09375 L 23.03125 45.75 C 23.019531 45.761719 23.011719 45.773438 23 45.78125 C 22.574219 46.125 22.007813 46.070313 21.71875 45.78125 L 4.34375 28.4375 L 4.3125 28.40625 C 3.96875 27.980469 4.023438 27.382813 4.3125 27.09375 L 27.0625 4.34375 C 27.195313 4.191406 27.394531 4.089844 27.84375 4.03125 C 28.070313 4 28.328125 4 28.625 4 Z M 39 7 C 36.800781 7 35 8.800781 35 11 C 35 13.199219 36.800781 15 39 15 C 41.199219 15 43 13.199219 43 11 C 43 8.800781 41.199219 7 39 7 Z M 39 9 C 40.117188 9 41 9.882813 41 11 C 41 12.117188 40.117188 13 39 13 C 37.882813 13 37 12.117188 37 11 C 37 9.882813 37.882813 9 39 9 Z M 32.3125 17 L 30.6875 18.59375 C 29.386719 17.59375 26.398438 16.507813 24 18.90625 C 19.5 23.40625 28.398438 27.695313 25 31.09375 C 23.800781 32.292969 22.292969 32.792969 20.09375 30.59375 C 17.894531 28.394531 19.007813 26.085938 19.90625 25.1875 L 18.5 23.8125 C 15.699219 27.113281 17.09375 29.914063 18.09375 31.3125 L 16.6875 32.6875 L 18.09375 34.09375 L 19.40625 32.8125 C 20.707031 33.710938 23.988281 35.394531 26.6875 32.59375 C 28.988281 30.292969 27.804688 27.707031 26.40625 25.40625 C 25.207031 23.507813 24.289063 21.804688 25.6875 20.40625 C 26.289063 19.804688 27.992188 18.585938 30.09375 20.6875 C 31.59375 22.1875 31.398438 23.792969 30.5 25.09375 L 31.90625 26.5 C 33.007813 24.5 33.792969 22.398438 32.09375 20 L 33.6875 18.40625 Z " fill="#9a9a9a"/></g></svg>
