<?xml version="1.0" encoding="UTF-8" standalone="no"?>
<svg
   xmlns:dc="http://purl.org/dc/elements/1.1/"
   xmlns:cc="http://creativecommons.org/ns#"
   xmlns:rdf="http://www.w3.org/1999/02/22-rdf-syntax-ns#"
   xmlns:svg="http://www.w3.org/2000/svg"
   xmlns="http://www.w3.org/2000/svg"
   xmlns:sodipodi="http://sodipodi.sourceforge.net/DTD/sodipodi-0.dtd"
   xmlns:inkscape="http://www.inkscape.org/namespaces/inkscape"
   viewBox="0 0 50 50"
   version="1.1"
   fill="#000000"
   id="svg2"
   inkscape:version="0.91 r13725"
   sodipodi:docname="icons8-banknotes.svg">
  <metadata
     id="metadata11">
    <rdf:RDF>
      <cc:Work
         rdf:about="">
        <dc:format>image/svg+xml</dc:format>
        <dc:type
           rdf:resource="http://purl.org/dc/dcmitype/StillImage" />
      </cc:Work>
    </rdf:RDF>
  </metadata>
  <defs
     id="defs9" />
  <sodipodi:namedview
     pagecolor="#ffffff"
     bordercolor="#666666"
     borderopacity="1"
     objecttolerance="10"
     gridtolerance="10"
     guidetolerance="10"
     inkscape:pageopacity="0"
     inkscape:pageshadow="2"
     inkscape:window-width="1355"
     inkscape:window-height="1003"
     id="namedview7"
     showgrid="false"
     inkscape:zoom="4.72"
     inkscape:cx="-5.9322034"
     inkscape:cy="25"
     inkscape:window-x="0"
     inkscape:window-y="0"
     inkscape:window-maximized="0"
     inkscape:current-layer="svg2" />
  <g
     id="surface1"
     transform="matrix(0.70307596,0,0,0.70307596,7.3462021,8.5326427)"
     style="fill:#000000">
    <path
       style="fill:#000000"
       d="M 42.71875,0.84375 41.75,1.09375 32.78125,3.5 C 32.726563,3.511719 32.679688,3.515625 32.625,3.53125 l -22.34375,6 -9.09375,2.4375 -0.96875,0.25 0.25,0.96875 2.15625,7.9375 0,0.0625 L 6,33.65625 6,46 50,46 50,20 47.875,20 42.96875,1.78125 Z m -1.4375,2.4375 1.125,4.21875 C 42.199219,7.449219 41.984375,7.378906 41.78125,7.34375 41.148438,7.242188 40.550781,7.183594 40.0625,7.125 39.574219,7.066406 39.199219,6.960938 39.15625,6.9375 39.117188,6.914063 38.847656,6.652344 38.53125,6.25 38.214844,5.847656 37.808594,5.335938 37.3125,4.84375 c -0.125,-0.125 -0.261719,-0.257812 -0.40625,-0.375 z m -7.21875,2.0625 c 0.796875,-0.00391 1.296875,0.363281 1.84375,0.90625 0.363281,0.363281 0.691406,0.820313 1.03125,1.25 0.339844,0.429688 0.660156,0.863281 1.21875,1.1875 0.558594,0.320313 1.097656,0.367188 1.65625,0.4375 0.558594,0.070313 1.140625,0.101563 1.65625,0.1875 0.515625,0.085938 0.941406,0.214844 1.21875,0.375 0.253906,0.148438 0.382813,0.277344 0.46875,0.53125 0.0078,0.02344 0.02344,0.03516 0.03125,0.0625 L 45.78125,20 l -11.875,0 c 0.03906,-1.0625 -0.08203,-2.15625 -0.375,-3.25 C 32.472656,12.800781 29.371094,9.925781 25.84375,9.28125 25.257813,9.175781 24.664063,9.132813 24.0625,9.15625 23.460938,9.179688 22.855469,9.273438 22.25,9.4375 17.828125,10.625 15.207031,15.210938 15.84375,20 L 6,20 6,25.96875 4.53125,20.53125 c -0.035156,-0.222656 -0.00781,-0.394531 0.125,-0.625 0.160156,-0.277344 0.472656,-0.636719 0.875,-0.96875 C 5.933594,18.605469 6.425781,18.308594 6.875,17.96875 7.324219,17.628906 7.742188,17.308594 8.0625,16.75 l 0.03125,0 c 0.324219,-0.558594 0.359375,-1.085937 0.4375,-1.625 0.078125,-0.539062 0.148438,-1.097656 0.28125,-1.59375 0.269531,-0.992187 0.625,-1.691406 2,-2.0625 l 22.34375,-6 C 33.5,5.375 33.796875,5.34375 34.0625,5.34375 Z M 24.125,11.125 c 3.246094,-0.105469 6.453125,2.363281 7.46875,6.15625 0.246094,0.921875 0.351563,1.835938 0.3125,2.71875 L 17.875,20 c -0.660156,-4.007812 1.453125,-7.738281 4.875,-8.65625 0.460938,-0.125 0.910156,-0.203125 1.375,-0.21875 z m 14.84375,1.1875 c -1.921875,0 -3.5,1.578125 -3.5,3.5 0,1.921875 1.578125,3.5 3.5,3.5 1.921875,0 3.5,-1.578125 3.5,-3.5 0,-1.921875 -1.578125,-3.5 -3.5,-3.5 z M 7.03125,12.5 C 6.964844,12.671875 6.921875,12.832031 6.875,13 6.691406,13.675781 6.636719,14.304688 6.5625,14.8125 6.488281,15.320313 6.367188,15.710938 6.34375,15.75 6.320313,15.79297 6.046875,16.078125 5.65625,16.375 5.265625,16.671875 4.777344,17 4.28125,17.40625 c -0.167969,0.136719 -0.335937,0.28125 -0.5,0.4375 l -1.125,-4.1875 z m 31.9375,1.8125 c 0.839844,0 1.5,0.660156 1.5,1.5 0,0.839844 -0.660156,1.5 -1.5,1.5 -0.839844,0 -1.5,-0.660156 -1.5,-1.5 0,-0.839844 0.660156,-1.5 1.5,-1.5 z M 8,22 l 4.53125,0 c -0.109375,0.148438 -0.191406,0.316406 -0.28125,0.46875 -0.351562,0.605469 -0.609375,1.21875 -0.8125,1.6875 C 11.234375,24.625 11.03125,24.9375 11,24.96875 10.96484,25.00391 10.644531,25.222656 10.1875,25.40625 9.730469,25.589844 9.175781,25.800781 8.59375,26.0625 8.398438,26.152344 8.199219,26.269531 8,26.375 Z m 8.4375,0 23.125,0 c 1.425781,0 1.953125,0.578125 2.46875,1.46875 0.257813,0.445313 0.472656,0.96875 0.6875,1.46875 0.214844,0.5 0.386719,1.011719 0.84375,1.46875 0.453125,0.453125 0.980469,0.632813 1.5,0.84375 0.519531,0.210938 1.054688,0.410156 1.53125,0.625 0.476563,0.214844 0.867188,0.460938 1.09375,0.6875 C 47.914063,28.789063 48,28.929688 48,29.25 l 0,10 c 0,0.140625 -0.01172,0.167969 -0.125,0.28125 -0.113281,0.113281 -0.375,0.265625 -0.6875,0.40625 -0.3125,0.140625 -0.660156,0.289063 -1.03125,0.4375 -0.371094,0.148438 -0.777344,0.277344 -1.15625,0.65625 -0.382812,0.382813 -0.503906,0.742188 -0.65625,1.09375 -0.152344,0.351563 -0.304687,0.714844 -0.46875,1 C 43.542969,43.695313 43.320313,44 42.4375,44 l -28.875,0 c -0.882812,0 -1.105469,-0.304687 -1.4375,-0.875 -0.164062,-0.285156 -0.316406,-0.644531 -0.46875,-1 C 11.503906,41.769531 11.382813,41.414063 11,41.03125 10.621094,40.652344 10.214844,40.523438 9.84375,40.375 9.472656,40.226563 9.125,40.078125 8.8125,39.9375 8.5,39.796875 8.238281,39.644531 8.125,39.53125 8.011719,39.417969 8,39.390625 8,39.25 L 8,33.5 8.03125,33.5 8,33.375 8,29.25 c 0,-0.320312 0.085938,-0.460937 0.3125,-0.6875 0.226563,-0.226562 0.617188,-0.472656 1.09375,-0.6875 0.476563,-0.214844 1.011719,-0.414062 1.53125,-0.625 0.519531,-0.210937 1.046875,-0.390625 1.5,-0.84375 0.457031,-0.457031 0.625,-0.96875 0.84375,-1.46875 0.21875,-0.5 0.429688,-1.023437 0.6875,-1.46875 C 14.484375,22.578125 15.011719,22 16.4375,22 Z M 43.46875,22 48,22 48,26.375 C 47.804688,26.269531 47.601563,26.152344 47.40625,26.0625 46.824219,25.800781 46.269531,25.589844 45.8125,25.40625 45.355469,25.222656 45.035156,25.003906 45,24.96875 44.96875,24.9375 44.765625,24.625 44.5625,24.15625 44.359375,23.6875 44.101563,23.074219 43.75,22.46875 43.660156,22.316406 43.578125,22.148438 43.46875,22 Z M 28,23 c -5.027344,0 -9,4.550781 -9,10 0,5.449219 3.972656,10 9,10 5.027344,0 9,-4.550781 9,-10 0,-5.449219 -3.972656,-10 -9,-10 z m 0,2 c 3.808594,0 7,3.511719 7,8 0,4.488281 -3.191406,8 -7,8 -3.808594,0 -7,-3.511719 -7,-8 0,-4.488281 3.191406,-8 7,-8 z M 13.5,30 C 11.578125,30 10,31.578125 10,33.5 10,35.421875 11.578125,37 13.5,37 15.421875,37 17,35.421875 17,33.5 17,31.578125 15.421875,30 13.5,30 Z m 29,0 C 40.578125,30 39,31.578125 39,33.5 39,35.421875 40.578125,37 42.5,37 44.421875,37 46,35.421875 46,33.5 46,31.578125 44.421875,30 42.5,30 Z m -29,2 C 14.339844,32 15,32.660156 15,33.5 15,34.339844 14.339844,35 13.5,35 12.660156,35 12,34.339844 12,33.5 12,32.660156 12.660156,32 13.5,32 Z m 29,0 C 43.339844,32 44,32.660156 44,33.5 44,34.339844 43.339844,35 42.5,35 41.660156,35 41,34.339844 41,33.5 41,32.660156 41.660156,32 42.5,32 Z M 8,41.78125 c 0.410156,0.183594 0.792969,0.316406 1.09375,0.4375 0.304688,0.125 0.511719,0.261719 0.46875,0.21875 -0.042969,-0.04297 0.109375,0.179688 0.25,0.5 0.125,0.289063 0.285156,0.667969 0.5,1.0625 L 8,44 Z m 40,0 L 48,44 45.6875,44 c 0.214844,-0.394531 0.375,-0.773437 0.5,-1.0625 0.140625,-0.320312 0.292969,-0.542969 0.25,-0.5 -0.04297,0.04297 0.160156,-0.09375 0.46875,-0.21875 0.300781,-0.121094 0.683594,-0.253906 1.09375,-0.4375 z"
       id="path5"
       inkscape:connector-curvature="0" />
  </g>
</svg>
