<?xml version="1.0" encoding="UTF-8"?>
<svg xmlns="http://www.w3.org/2000/svg" xmlns:xlink="http://www.w3.org/1999/xlink" viewBox="0 0 50 50" version="1.1" fill="#9a9a9a"><g id="surface1" fill="#9a9a9a"><path style=" " d="M 30 0 C 28.625 0 27.480469 0.65625 26.84375 1.625 C 26.207031 2.59375 26 3.777344 26 5 L 26 13.21875 C 24.214844 14.125 22.253906 14.949219 20.15625 15.71875 C 17.03125 16.863281 13.828125 18.007813 11.3125 19.875 C 8.796875 21.742188 7 24.429688 7 28.25 C 7 30.921875 7.988281 33.058594 9.53125 34.59375 C 11.074219 36.128906 13.128906 37.113281 15.28125 37.75 C 19.175781 38.902344 23.296875 38.960938 26 38.96875 L 26 43 C 26 45.773438 23.769531 48 21 48 C 18.230469 48 16 45.773438 16 43 C 16.003906 42.640625 15.816406 42.304688 15.503906 42.121094 C 15.191406 41.941406 14.808594 41.941406 14.496094 42.121094 C 14.183594 42.304688 13.996094 42.640625 14 43 C 14 46.855469 17.148438 50 21 50 C 24.851563 50 28 46.855469 28 43 L 28 38.90625 C 29.707031 38.816406 31.777344 38.539063 33.71875 37.53125 C 36.027344 36.332031 38 34.027344 38 30.5 C 38 27.027344 36.355469 24.71875 34.15625 23.5 C 32.261719 22.449219 30.046875 22.171875 28 22.09375 L 28 14.375 C 28.558594 14.050781 29.179688 13.785156 29.6875 13.40625 C 32.203125 11.535156 34 8.828125 34 5 C 34 3.738281 33.796875 2.558594 33.15625 1.59375 C 32.515625 0.628906 31.363281 0 30 0 Z M 30 2 C 30.847656 2 31.195313 2.226563 31.5 2.6875 C 31.804688 3.148438 32 3.964844 32 5 C 32 8.238281 30.671875 10.199219 28.5 11.8125 C 28.355469 11.917969 28.148438 11.992188 28 12.09375 L 28 5 C 28 4.015625 28.1875 3.195313 28.5 2.71875 C 28.8125 2.242188 29.164063 2 30 2 Z M 26 15.5 L 26 22 C 21.59375 22 18 25.59375 18 30 C 17.996094 30.359375 18.183594 30.695313 18.496094 30.878906 C 18.808594 31.058594 19.191406 31.058594 19.503906 30.878906 C 19.816406 30.695313 20.003906 30.359375 20 30 C 20 26.675781 22.675781 24 26 24 L 26 36.96875 C 23.324219 36.957031 19.363281 36.886719 15.84375 35.84375 C 13.894531 35.265625 12.148438 34.390625 10.9375 33.1875 C 9.726563 31.984375 9 30.449219 9 28.25 C 9 25.023438 10.328125 23.078125 12.5 21.46875 C 14.671875 19.859375 17.71875 18.738281 20.84375 17.59375 C 22.59375 16.953125 24.335938 16.269531 26 15.5 Z M 28 24.09375 C 29.839844 24.179688 31.753906 24.453125 33.1875 25.25 C 34.882813 26.191406 36 27.613281 36 30.5 C 36 33.332031 34.664063 34.789063 32.8125 35.75 C 31.292969 36.539063 29.488281 36.808594 28 36.90625 Z " fill="#9a9a9a"/></g></svg>
