<?xml version="1.0" encoding="UTF-8"?>
<svg xmlns="http://www.w3.org/2000/svg" xmlns:xlink="http://www.w3.org/1999/xlink" viewBox="0 0 50 50" version="1.1" fill="#9a9a9a"><g id="surface1" fill="#9a9a9a"><path style=" " d="M 17.8125 3 C 14.644531 3 12 5.886719 12 9 L 12 41 C 12 42.871094 12.917969 44.394531 14.09375 45.40625 C 15.269531 46.417969 16.683594 47 18 47 L 32.40625 47 C 35.464844 47 38 44.464844 38 41.40625 L 38 8.59375 C 38 5.535156 35.464844 3 32.40625 3 Z M 17.8125 5 L 32.40625 5 C 34.347656 5 36 6.652344 36 8.59375 L 36 41.40625 C 36 43.347656 34.347656 45 32.40625 45 L 18 45 C 17.316406 45 16.230469 44.617188 15.40625 43.90625 C 14.582031 43.195313 14 42.226563 14 41 L 14 9 C 14 7.113281 15.980469 5 17.8125 5 Z M 16.8125 8 C 16.335938 8.089844 15.992188 8.511719 16 9 L 16 40 C 16 40.550781 16.449219 41 17 41 L 33 41 C 33.550781 41 34 40.550781 34 40 L 34 9 C 34 8.449219 33.550781 8 33 8 L 17 8 C 16.96875 8 16.9375 8 16.90625 8 C 16.875 8 16.84375 8 16.8125 8 Z M 18 10 L 32 10 L 32 39 L 18 39 Z M 25 41.5 C 24.171875 41.5 23.5 42.171875 23.5 43 C 23.5 43.828125 24.171875 44.5 25 44.5 C 25.828125 44.5 26.5 43.828125 26.5 43 C 26.5 42.171875 25.828125 41.5 25 41.5 Z " fill="#9a9a9a"/></g></svg>
