<?xml version="1.0" encoding="UTF-8" standalone="no"?>
<svg
   xmlns:dc="http://purl.org/dc/elements/1.1/"
   xmlns:cc="http://creativecommons.org/ns#"
   xmlns:rdf="http://www.w3.org/1999/02/22-rdf-syntax-ns#"
   xmlns:svg="http://www.w3.org/2000/svg"
   xmlns="http://www.w3.org/2000/svg"
   xmlns:sodipodi="http://sodipodi.sourceforge.net/DTD/sodipodi-0.dtd"
   xmlns:inkscape="http://www.inkscape.org/namespaces/inkscape"
   viewBox="0 0 50 50"
   version="1.1"
   fill="#000000"
   id="svg2"
   inkscape:version="0.91 r13725"
   sodipodi:docname="icons8-money_box.svg">
  <metadata
     id="metadata11">
    <rdf:RDF>
      <cc:Work
         rdf:about="">
        <dc:format>image/svg+xml</dc:format>
        <dc:type
           rdf:resource="http://purl.org/dc/dcmitype/StillImage" />
      </cc:Work>
    </rdf:RDF>
  </metadata>
  <defs
     id="defs9" />
  <sodipodi:namedview
     pagecolor="#ffffff"
     bordercolor="#666666"
     borderopacity="1"
     objecttolerance="10"
     gridtolerance="10"
     guidetolerance="10"
     inkscape:pageopacity="0"
     inkscape:pageshadow="2"
     inkscape:window-width="1041"
     inkscape:window-height="847"
     id="namedview7"
     showgrid="false"
     inkscape:zoom="4.72"
     inkscape:cx="18.432203"
     inkscape:cy="25"
     inkscape:window-x="157"
     inkscape:window-y="49"
     inkscape:window-maximized="0"
     inkscape:current-layer="svg2" />
  <g
     id="surface1"
     transform="matrix(0.76086957,0,0,0.76086957,5.9782608,6.4931501)"
     style="fill:#000000">
    <path
       style="fill:#000000"
       d="m 18.5,2.5625 c -4.132812,0 -7.5,3.371094 -7.5,7.5 0,1.160156 0.273438,2.273438 0.75,3.25 l 1.78125,-0.875 C 13.183594,11.726563 13,10.917969 13,10.0625 c 0,-3.050781 2.445313,-5.5 5.5,-5.5 3.046875,0 5.5,2.449219 5.5,5.5 l 2,0 c 0,-4.132812 -3.371094,-7.5 -7.5,-7.5 z m 18.6875,4.375 C 37.14453,6.94531 37.10156,6.957031 37.0625,6.96875 37.042969,6.976563 37.019531,6.988281 37,7 34.464844,7.636719 31.5625,9.15625 29.71875,12.59375 27.964844,12.21875 26.171875,11.9375 24.25,11.9375 c -5.6875,0 -10.097656,1.769531 -13.5625,4.46875 C 8.917969,17.78125 7.53125,19.671875 6.65625,22 6.347656,21.894531 5.9375,21.722656 5.46875,21.40625 4.683594,20.871094 4,20.136719 4,18.78125 4,17.703125 4.503906,16.800781 5.34375,16.4375 5.8125,16.265625 6.082031,15.78125 5.980469,15.292969 5.878906,14.804688 5.433594,14.46875 4.9375,14.5 4.808594,14.507813 4.679688,14.539063 4.5625,14.59375 2.902344,15.308594 2,17.03125 2,18.78125 c 0,2.09375 1.21875,3.515625 2.34375,4.28125 0.695313,0.472656 1.289063,0.707031 1.71875,0.84375 -0.339844,1.480469 -0.480469,3.121094 -0.40625,4.875 0.1875,4.453125 3.203125,7.71875 5.46875,9.53125 0.01172,0 0.01953,0 0.03125,0 0.203125,0.160156 0.265625,0.253906 0.28125,0.28125 0.01563,0.02734 0.0625,-0.03516 -0.03125,0.25 -0.300781,0.921875 -0.875,2.3125 -0.875,2.3125 0,0.01172 0,0.01953 0,0.03125 -0.53125,1.394531 0.171875,2.96875 1.5625,3.5 0,0.01172 0,0.01953 0,0.03125 l 3.21875,1.1875 c 1.394531,0.53125 3,-0.167969 3.53125,-1.5625 0,0 0.398438,-1.125 0.75,-2.0625 0.05469,-0.140625 0.09375,-0.175781 0.125,-0.21875 0.03906,0.0039 0.04297,0.01563 0.125,0.03125 0.636719,0.117188 2.050781,0.53125 4.40625,0.53125 2.402344,0 3.800781,-0.242187 4.4375,-0.28125 0.125,-0.0078 0.175781,0 0.21875,0 0.01563,0.02734 0.01172,0.05078 0.03125,0.09375 0.0039,0.01563 -0.0039,0.01563 0,0.03125 0.320313,0.957031 0.707031,1.847656 0.71875,1.875 0.0039,0.01563 0.02344,0.01563 0.03125,0.03125 0.542969,1.367188 2.089844,2.054688 3.46875,1.53125 l 3.21875,-1.1875 c 0,-0.01172 0,-0.01953 0,-0.03125 1.394531,-0.527344 2.097656,-2.105469 1.5625,-3.5 l -0.5,-1.34375 c -0.02734,-0.05469 -0.05859,-0.105469 -0.09375,-0.15625 0,0 0.03125,-0.0039 0.03125,0 0,0.0039 -0.136719,0.05078 0.1875,-0.125 2.429688,-1.320312 4.289063,-3.355469 5.46875,-5.8125 0.109375,-0.230469 0.203125,-0.394531 0.28125,-0.46875 0.07813,-0.07422 0.125,-0.125 0.4375,-0.125 l 1.625,0 c 1.4375,0 2.625,-1.1875 2.625,-2.625 l 0,-4.875 c 0,-1.4375 -1.183594,-2.625 -2.625,-2.625 l -1.625,0 C 43.496094,23.03125 43.429688,23.01172 43.40625,23 42.910156,20.121094 40.96875,16.515625 36.6875,14.6875 36.73828,12.628906 37.191406,11 38.1875,8.3125 38.316406,7.992188 38.273438,7.625 38.070313,7.347656 37.867188,7.066406 37.53125,6.910156 37.1875,6.9375 Z M 35.625,9.75 c -0.605469,1.882813 -1.035156,3.574219 -1,5.53125 0.0039,0.425781 0.28125,0.804688 0.6875,0.9375 4.183594,1.460938 5.726563,4.714844 6.125,7.21875 0.152344,0.953125 1.167969,1.59375 2.3125,1.59375 l 1.625,0 c 0.351563,0 0.625,0.269531 0.625,0.625 l 0,4.875 c 0,0.351563 -0.269531,0.625 -0.625,0.625 l -1.625,0 c -0.734375,0 -1.398437,0.273438 -1.8125,0.65625 -0.414062,0.382813 -0.597656,0.804688 -0.71875,1.0625 -1.015625,2.113281 -2.539062,3.789063 -4.59375,4.90625 -0.800781,0.433594 -1.230469,1.238281 -1.25,1.84375 -0.01563,0.519531 0.160156,0.796875 0.21875,0.90625 l -0.03125,0 0.0625,0.15625 0.4375,1.21875 c 0.144531,0.375 -0.02344,0.792969 -0.40625,0.9375 L 32.4375,44.0625 C 32.054688,44.207031 31.640625,44.00391 31.5,43.625 c 0,-0.01172 0,-0.01953 0,-0.03125 0,0 -0.390625,-0.894531 -0.6875,-1.78125 -0.148437,-0.433594 -0.359375,-0.917969 -0.84375,-1.21875 -0.484375,-0.300781 -0.960937,-0.277344 -1.40625,-0.25 -0.890625,0.05859 -2.039062,0.28125 -4.3125,0.28125 -2.144531,0 -3.203125,-0.34375 -4.0625,-0.5 -0.429687,-0.07813 -0.957031,-0.148437 -1.5,0.15625 -0.542969,0.304688 -0.746094,0.800781 -0.9375,1.3125 -0.34375,0.921875 -0.78125,2.03125 -0.78125,2.03125 -0.144531,0.378906 -0.558594,0.582031 -0.9375,0.4375 L 12.8125,42.84375 c -0.378906,-0.144531 -0.550781,-0.558594 -0.40625,-0.9375 0.01563,-0.04297 0.5625,-1.382812 0.90625,-2.4375 0.230469,-0.710937 0.132813,-1.429687 -0.15625,-1.90625 C 12.867188,37.085938 12.480469,36.832031 12.375,36.75 10.351563,35.132813 7.804688,32.257813 7.65625,28.6875 7.445313,23.621094 9.183594,20.089844 11.90625,17.96875 15.0625,15.511719 18.96875,13.9375 24.25,13.9375 c 2.015625,0 3.921875,0.246094 5.71875,0.6875 0.472656,0.117188 0.957031,-0.121094 1.15625,-0.5625 1.121094,-2.472656 2.78125,-3.566406 4.5,-4.3125 z m 0.84375,13.34375 c -1.058594,0 -1.90625,0.851563 -1.90625,1.90625 0,1.058594 0.847656,1.9375 1.90625,1.9375 1.054688,0 1.90625,-0.882812 1.90625,-1.9375 0,-1.054687 -0.851562,-1.90625 -1.90625,-1.90625 z"
       id="path5"
       inkscape:connector-curvature="0" />
  </g>
</svg>
