<?xml version="1.0" encoding="UTF-8"?>
<svg xmlns="http://www.w3.org/2000/svg" xmlns:xlink="http://www.w3.org/1999/xlink" viewBox="0 0 50 50" version="1.1" fill="#9a9a9a"><g id="surface1" fill="#9a9a9a"><path style=" " d="M 0.8125 10 C 0.335938 10.089844 -0.0078125 10.511719 0 11 L 0 39 C 0 39.550781 0.449219 40 1 40 L 49 40 C 49.550781 40 50 39.550781 50 39 L 50 11 C 50 10.449219 49.550781 10 49 10 L 1 10 C 0.96875 10 0.9375 10 0.90625 10 C 0.875 10 0.84375 10 0.8125 10 Z M 2 12 L 48 12 L 48 38 L 2 38 Z M 7.71875 17 C 7.167969 17.078125 6.78125 17.589844 6.859375 18.140625 C 6.9375 18.691406 7.449219 19.078125 8 19 L 29 19 C 29.359375 19.003906 29.695313 18.816406 29.878906 18.503906 C 30.058594 18.191406 30.058594 17.808594 29.878906 17.496094 C 29.695313 17.183594 29.359375 16.996094 29 17 L 8 17 C 7.96875 17 7.9375 17 7.90625 17 C 7.875 17 7.84375 17 7.8125 17 C 7.78125 17 7.75 17 7.71875 17 Z M 39 18 L 39 19.1875 C 37.84375 19.605469 37 20.707031 37 22 L 37 23.5625 C 36.996094 23.882813 37.148438 24.183594 37.40625 24.375 L 41 27.0625 L 41 28 C 41 28.566406 40.566406 29 40 29 C 39.433594 29 39 28.566406 39 28 L 39 27 L 37 27 L 37 28 C 37 29.292969 37.84375 30.394531 39 30.8125 L 39 32 L 41 32 L 41 30.8125 C 42.15625 30.394531 43 29.292969 43 28 L 43 26.5625 C 42.992188 26.253906 42.84375 25.964844 42.59375 25.78125 L 39 23.09375 L 39 22 C 39 21.433594 39.433594 21 40 21 C 40.566406 21 41 21.433594 41 22 L 41 23 L 43 23 L 43 22 C 43 20.707031 42.15625 19.605469 41 19.1875 L 41 18 Z M 7.71875 21 C 7.167969 21.078125 6.78125 21.589844 6.859375 22.140625 C 6.9375 22.691406 7.449219 23.078125 8 23 L 25 23 C 25.359375 23.003906 25.695313 22.816406 25.878906 22.503906 C 26.058594 22.191406 26.058594 21.808594 25.878906 21.496094 C 25.695313 21.183594 25.359375 20.996094 25 21 L 8 21 C 7.96875 21 7.9375 21 7.90625 21 C 7.875 21 7.84375 21 7.8125 21 C 7.78125 21 7.75 21 7.71875 21 Z M 11.3125 26.8125 C 9.75 26.8125 8.714844 27.929688 8.0625 28.84375 C 7.410156 29.757813 7.0625 30.65625 7.0625 30.65625 C 6.914063 30.996094 6.96875 31.390625 7.203125 31.679688 C 7.433594 31.96875 7.804688 32.105469 8.171875 32.035156 C 8.535156 31.964844 8.828125 31.699219 8.9375 31.34375 C 8.9375 31.34375 9.207031 30.675781 9.6875 30 C 10.167969 29.324219 10.75 28.8125 11.3125 28.8125 C 11.492188 28.8125 11.871094 28.988281 12.28125 29.53125 C 12.617188 29.972656 12.910156 30.65625 13.15625 31.3125 C 13.105469 31.421875 13.015625 31.511719 12.96875 31.625 C 12.621094 32.457031 12.382813 33.28125 12.375 34.0625 C 12.371094 34.453125 12.40625 34.835938 12.65625 35.25 C 12.90625 35.664063 13.496094 36 14 36 C 14.558594 36 15.136719 35.605469 15.375 35.1875 C 15.613281 34.769531 15.667969 34.367188 15.6875 33.9375 C 15.722656 33.207031 15.539063 32.359375 15.3125 31.53125 C 15.503906 31.203125 15.671875 30.832031 15.875 30.59375 C 16.261719 30.140625 16.621094 30 16.625 30 C 16.660156 30 16.871094 30.0625 17.15625 30.40625 C 17.394531 30.691406 17.628906 31.15625 17.8125 31.59375 C 17.503906 32.144531 17.238281 32.671875 17.1875 33.28125 C 17.160156 33.601563 17.175781 33.984375 17.4375 34.375 C 17.699219 34.765625 18.246094 35 18.65625 35 C 19.128906 35 19.640625 34.675781 19.875 34.3125 C 20.109375 33.949219 20.171875 33.621094 20.1875 33.28125 C 20.207031 32.871094 20.066406 32.425781 19.96875 32 C 20.136719 31.773438 20.296875 31.503906 20.46875 31.34375 C 20.777344 31.058594 21.050781 31 21 31 C 20.96875 31 20.976563 30.960938 21.125 31.125 C 21.273438 31.289063 21.464844 31.613281 21.65625 31.96875 C 21.847656 32.324219 22.058594 32.722656 22.3125 33.09375 C 22.4375 33.28125 22.5625 33.476563 22.78125 33.65625 C 23 33.835938 23.324219 34 23.71875 34 C 24.320313 34 24.714844 33.710938 25.03125 33.46875 C 25.347656 33.226563 25.617188 32.988281 25.875 32.75 C 26.394531 32.273438 26.855469 32 27 32 C 27.359375 32.003906 27.695313 31.816406 27.878906 31.503906 C 28.058594 31.191406 28.058594 30.808594 27.878906 30.496094 C 27.695313 30.183594 27.359375 29.996094 27 30 C 25.835938 30 25.097656 30.726563 24.53125 31.25 C 24.28125 31.480469 24.074219 31.707031 23.90625 31.84375 C 23.78125 31.640625 23.621094 31.375 23.4375 31.03125 C 23.226563 30.636719 22.980469 30.210938 22.625 29.8125 C 22.269531 29.414063 21.707031 29 21 29 C 20.199219 29 19.617188 29.421875 19.125 29.875 C 18.980469 29.632813 18.898438 29.371094 18.71875 29.15625 C 18.226563 28.5625 17.539063 28 16.625 28 C 15.625 28 14.914063 28.609375 14.34375 29.28125 C 14.171875 28.972656 14.082031 28.617188 13.875 28.34375 C 13.265625 27.539063 12.421875 26.8125 11.3125 26.8125 Z " fill="#9a9a9a"/></g></svg>
