<?xml version="1.0" encoding="UTF-8" standalone="no"?>
<svg
   xmlns:dc="http://purl.org/dc/elements/1.1/"
   xmlns:cc="http://creativecommons.org/ns#"
   xmlns:rdf="http://www.w3.org/1999/02/22-rdf-syntax-ns#"
   xmlns:svg="http://www.w3.org/2000/svg"
   xmlns="http://www.w3.org/2000/svg"
   xmlns:sodipodi="http://sodipodi.sourceforge.net/DTD/sodipodi-0.dtd"
   xmlns:inkscape="http://www.inkscape.org/namespaces/inkscape"
   viewBox="0 0 50 50"
   version="1.1"
   fill="#212e3e"
   id="svg2"
   inkscape:version="0.91 r13725"
   sodipodi:docname="icons8-camera.svg">
  <metadata
     id="metadata11">
    <rdf:RDF>
      <cc:Work
         rdf:about="">
        <dc:format>image/svg+xml</dc:format>
        <dc:type
           rdf:resource="http://purl.org/dc/dcmitype/StillImage" />
      </cc:Work>
    </rdf:RDF>
  </metadata>
  <defs
     id="defs9" />
  <sodipodi:namedview
     pagecolor="#ffffff"
     bordercolor="#666666"
     borderopacity="1"
     objecttolerance="10"
     gridtolerance="10"
     guidetolerance="10"
     inkscape:pageopacity="0"
     inkscape:pageshadow="2"
     inkscape:window-width="699"
     inkscape:window-height="480"
     id="namedview7"
     showgrid="false"
     inkscape:zoom="4.72"
     inkscape:cx="26.165254"
     inkscape:cy="25"
     inkscape:window-x="0"
     inkscape:window-y="0"
     inkscape:window-maximized="0"
     inkscape:current-layer="svg2" />
  <g
     id="surface1"
     transform="matrix(0.8,0,0,0.8,5,5.8)"
     style="fill:#212e3e">
    <path
       style="fill:#212e3e"
       d="M 24.375,4 C 22.472656,4 20.699219,5.414063 19.9375,7.375 L 19.3125,9 14,9 14,8 C 14,7.449219 13.550781,7 13,7 L 6,7 C 5.449219,7 5,7.449219 5,8 L 5,9.40625 C 2.136719,10.285156 0,12.859375 0,16 l 0,21 c 0,3.855469 3.144531,7 7,7 l 36,0 c 3.855469,0 7,-3.144531 7,-7 L 50,16 C 50,12.144531 46.855469,9 43,9 L 40.6875,9 40.0625,7.375 C 39.300781,5.414063 37.53125,4 35.625,4 Z m 0,2 11.25,0 c 0.765625,0 2.085938,0.867188 2.5625,2.09375 l 0.875,2.28125 C 39.214844,10.757813 39.589844,11.003906 40,11 l 3,0 c 2.773438,0 5,2.226563 5,5 l 0,21 c 0,2.773438 -2.226562,5 -5,5 L 7,42 C 4.226563,42 2,39.773438 2,37 L 2,16 C 2,13.511719 3.792969,11.460938 6.15625,11.0625 6.636719,10.988281 6.992188,10.578125 7,10.09375 L 7,9 l 5,0 0,1 c 0,0.550781 0.449219,1 1,1 l 7,0 c 0.410156,0.0039 0.785156,-0.242187 0.9375,-0.625 l 0.875,-2.28125 C 22.289063,6.867188 23.609375,6 24.375,6 Z M 30,13 c -7.164062,0 -13,5.835938 -13,13 0,7.164063 5.835938,13 13,13 7.164063,0 13,-5.835937 13,-13 C 43,18.835938 37.164063,13 30,13 Z M 7,14 c -1.105469,0 -2,0.894531 -2,2 0,1.105469 0.894531,2 2,2 1.105469,0 2,-0.894531 2,-2 0,-1.105469 -0.894531,-2 -2,-2 z m 23,1 c 6.085938,0 11,4.914063 11,11 0,6.085938 -4.914062,11 -11,11 -6.085937,0 -11,-4.914062 -11,-11 0,-6.085937 4.914063,-11 11,-11 z"
       id="path5"
       inkscape:connector-curvature="0" />
  </g>
</svg>
