<?xml version="1.0" encoding="UTF-8" standalone="no"?>
<svg
   xmlns:dc="http://purl.org/dc/elements/1.1/"
   xmlns:cc="http://creativecommons.org/ns#"
   xmlns:rdf="http://www.w3.org/1999/02/22-rdf-syntax-ns#"
   xmlns:svg="http://www.w3.org/2000/svg"
   xmlns="http://www.w3.org/2000/svg"
   xmlns:sodipodi="http://sodipodi.sourceforge.net/DTD/sodipodi-0.dtd"
   xmlns:inkscape="http://www.inkscape.org/namespaces/inkscape"
   viewBox="0 0 50 50"
   version="1.1"
   fill="#212e3e"
   id="svg2"
   inkscape:version="0.91 r13725"
   sodipodi:docname="icons8-picture.svg">
  <metadata
     id="metadata11">
    <rdf:RDF>
      <cc:Work
         rdf:about="">
        <dc:format>image/svg+xml</dc:format>
        <dc:type
           rdf:resource="http://purl.org/dc/dcmitype/StillImage" />
      </cc:Work>
    </rdf:RDF>
  </metadata>
  <defs
     id="defs9" />
  <sodipodi:namedview
     pagecolor="#ffffff"
     bordercolor="#666666"
     borderopacity="1"
     objecttolerance="10"
     gridtolerance="10"
     guidetolerance="10"
     inkscape:pageopacity="0"
     inkscape:pageshadow="2"
     inkscape:window-width="790"
     inkscape:window-height="557"
     id="namedview7"
     showgrid="false"
     inkscape:zoom="4.72"
     inkscape:cx="26.165254"
     inkscape:cy="25"
     inkscape:window-x="0"
     inkscape:window-y="0"
     inkscape:window-maximized="0"
     inkscape:current-layer="svg2" />
  <g
     id="surface1"
     transform="matrix(0.8,0,0,0.8,5,5)"
     style="fill:#212e3e">
    <path
       style="fill:#212e3e"
       d="M 0,4 0,46 50,46 50,4 Z M 2,6 48,6 48,44 2,44 Z M 4,8 4,30.78125 C 3.972656,30.914063 3.972656,31.054688 4,31.1875 L 4,42 46,42 46,37.15625 C 46.02734,37.023438 46.02734,36.882813 46,36.75 L 46,8 Z m 2,2 38,0 0,24.5625 -9.28125,-9.28125 C 34.496094,25.0625 34.183594,24.957031 33.875,25 c -0.222656,0.02344 -0.433594,0.125 -0.59375,0.28125 l -4.25,4.25 L 18.75,18.3125 C 18.519531,18.0625 18.179688,17.941406 17.84375,18 17.644531,18.02734 17.460938,18.117188 17.3125,18.25 L 6,28.6875 Z m 29,5 c -1.65625,0 -3,1.34375 -3,3 0,1.65625 1.34375,3 3,3 1.65625,0 3,-1.34375 3,-3 0,-1.65625 -1.34375,-3 -3,-3 z m -17.0625,5.4375 9.65625,10.53125 -2.3125,2.3125 c -0.398437,0.398438 -0.398437,1.039063 0,1.4375 0.398438,0.398438 1.039063,0.398438 1.4375,0 l 2.84375,-2.875 C 29.703125,31.757813 29.820313,31.640625 29.90625,31.5 L 34,27.4375 l 10,10 L 44,40 6,40 6,31.46875 Z"
       id="path5"
       inkscape:connector-curvature="0" />
  </g>
</svg>
